<?xml version="1.0" encoding="UTF-8"?>
<svg version="1.1" xmlns="http://www.w3.org/2000/svg" width="253" height="253">
<path d="M0 0 C83.49 0 166.98 0 253 0 C253 83.49 253 166.98 253 253 C169.51 253 86.02 253 0 253 C0 169.51 0 86.02 0 0 Z " fill="#4DB0F4" transform="translate(0,0)"/>
<path d="M0 0 C83.49 0 166.98 0 253 0 C253 83.49 253 166.98 253 253 C169.51 253 86.02 253 0 253 C0 169.51 0 86.02 0 0 Z M28.26171875 31.92578125 C17.75026264 44.59805061 15.68570991 58.08003105 15.74121094 74.11547852 C15.7377063 75.37873962 15.73420166 76.64200073 15.73059082 77.94354248 C15.72155564 81.37531119 15.72497374 84.80695822 15.73134899 88.23872876 C15.73645428 91.84949878 15.73170517 95.46025919 15.72857666 99.07102966 C15.72495057 105.13062386 15.7297008 111.19016911 15.73925781 117.24975586 C15.75014468 124.23270797 15.74660964 131.21554329 15.735605 138.19849259 C15.72649916 144.22006235 15.72526276 150.24159718 15.73048234 156.26317161 C15.73358335 159.84821766 15.73406317 163.43320899 15.72740936 167.01825142 C15.72050462 171.01687551 15.73010226 175.01530139 15.74121094 179.01391602 C15.73716248 180.18562851 15.73311401 181.357341 15.72894287 182.56455994 C15.81038386 198.45093284 19.78106871 212.31530081 31 224 C42.69348726 234.99694379 56.5256526 237.31143202 72.07202148 237.25878906 C73.35449768 237.2622937 74.63697388 237.26579834 75.95831299 237.26940918 C79.45218075 237.27846946 82.94592942 237.27501517 86.43979907 237.26865101 C90.1119738 237.26355677 93.78413892 237.26829202 97.45631409 237.27142334 C103.62201755 237.27505352 109.78767298 237.27028933 115.95336914 237.26074219 C123.06011098 237.24986429 130.16673797 237.25338219 137.27347702 237.264395 C143.39691628 237.27350076 149.52032118 237.27473699 155.64376503 237.26951766 C159.29143882 237.26641536 162.93905882 237.26594027 166.58672905 237.27259064 C170.65741537 237.27949485 174.72790696 237.26989787 178.79858398 237.25878906 C179.99214005 237.26283752 181.18569611 237.26688599 182.41542053 237.27105713 C195.02166739 237.20756958 208.8965188 235.19201178 219 227 C219 226.34 219 225.68 219 225 C219.5878125 224.75507813 220.175625 224.51015625 220.78125 224.2578125 C227.83457275 220.2592739 232.42683996 210.95151041 234.81294346 203.44126606 C236.90489419 195.68796665 237.43419912 188.49005417 237.40405273 180.4831543 C237.41091599 179.18876434 237.41777924 177.89437439 237.42485046 176.5607605 C237.44262552 173.04603974 237.44164307 169.53157076 237.43590808 166.01681876 C237.43279243 163.06504275 237.43893503 160.11331346 237.44494683 157.16154414 C237.45893994 150.18781516 237.45747531 143.21420881 237.44604492 136.24047852 C237.434577 129.08652404 237.44862879 121.93294505 237.4754414 114.77904004 C237.4977178 108.60024428 237.50420887 102.42156534 237.49836498 96.24273235 C237.49502155 92.56860242 237.49723321 88.8947128 237.51461601 85.22061729 C237.94957829 55.61548118 237.94957829 55.61548118 223.67578125 30.5 C210.89429747 18.30040481 195.86678657 15.52088359 178.60742188 15.61181641 C177.35014786 15.60655945 176.09287384 15.60130249 174.79750061 15.59588623 C171.39440879 15.58505287 167.99187456 15.58743905 164.58881569 15.59702349 C160.99861624 15.60471002 157.40843786 15.59754987 153.8182373 15.59286499 C147.79333303 15.58743326 141.7685397 15.59453064 135.74365234 15.60888672 C128.81463016 15.62520829 121.88587298 15.61991793 114.9568572 15.6034075 C108.96827247 15.58971841 102.97976671 15.58790895 96.99117136 15.59572351 C93.43172785 15.60035956 89.87240818 15.60113891 86.31297302 15.59111404 C82.33940629 15.58070104 78.3661276 15.59520206 74.39257812 15.61181641 C73.23995987 15.60574371 72.08734161 15.59967102 70.89979553 15.59341431 C54.69954035 15.71785787 39.45192625 19.52854013 28.26171875 31.92578125 Z " fill="#FCFCFC" transform="translate(0,0)"/>
<path d="M0 0 C5.66235415 3.47143019 10.66066844 7.79484589 14.98828125 12.83203125 C14.98828125 13.82203125 14.98828125 14.81203125 14.98828125 15.83203125 C15.97054687 15.76242188 15.97054687 15.76242188 16.97265625 15.69140625 C28.44498241 15.23769844 38.82897378 18.90708771 47.98828125 25.83203125 C51.92611547 29.61383808 55.64389456 33.86744767 57.98828125 38.83203125 C57.98828125 40.15203125 57.98828125 41.47203125 57.98828125 42.83203125 C58.59414062 42.785625 59.2 42.73921875 59.82421875 42.69140625 C69.01059924 42.29568524 75.74974825 44.65169223 82.80078125 50.58203125 C89.28775983 56.74809923 93.51698368 63.5436341 94.32421875 72.6015625 C94.60968942 85.31670691 91.63064997 93.38058971 82.98828125 102.83203125 C72.97308487 112.74855574 57.1572516 111.29309478 44.13671875 111.265625 C42.22726253 111.27019577 40.31780796 111.27550398 38.40835571 111.2815094 C34.42614005 111.29039659 30.44412544 111.28806599 26.46191406 111.27807617 C21.38035594 111.26656491 16.29949054 111.28685354 11.2180233 111.31599331 C7.28184673 111.33440595 3.34583487 111.33405323 -0.59037399 111.32835579 C-2.46331126 111.32820334 -4.33626023 111.33418388 -6.20915604 111.34664726 C-27.83404795 111.47036134 -27.83404795 111.47036134 -35.44921875 104.6484375 C-35.96484375 103.90464844 -36.48046875 103.16085938 -37.01171875 102.39453125 C-37.54796875 101.65332031 -38.08421875 100.91210938 -38.63671875 100.1484375 C-42.68193935 93.33361985 -43.06054339 86.23890312 -41.55859375 78.49609375 C-41.10861074 76.92115323 -40.5714812 75.37137798 -40.01171875 73.83203125 C-40.51960938 73.48011719 -41.0275 73.12820312 -41.55078125 72.765625 C-46.2436518 69.39976466 -50.98662346 65.85093934 -54.01171875 60.83203125 C-54.01171875 59.51203125 -54.01171875 58.19203125 -54.01171875 56.83203125 C-54.67171875 56.83203125 -55.33171875 56.83203125 -56.01171875 56.83203125 C-59.90509399 50.28619718 -60.71984639 45.14540552 -60.63671875 37.58203125 C-60.62979004 36.56367187 -60.62286133 35.5453125 -60.61572266 34.49609375 C-60.37740204 26.25889044 -58.95526598 20.57636018 -54.01171875 13.83203125 C-53.59019531 13.1771875 -53.16867188 12.52234375 -52.734375 11.84765625 C-41.12457087 -4.10259137 -17.27315203 -7.77403859 0 0 Z " fill="#F3F8F7" transform="translate(108.01171875,67.16796875)"/>
<path d="M0 0 C5.64665695 3.45894693 13.53457012 8.73174234 15.8125 15.16796875 C15.86921875 15.71582031 15.9259375 16.26367188 15.984375 16.828125 C15.36691406 16.91449219 14.74945313 17.00085938 14.11328125 17.08984375 C7.52389662 18.18305977 2.57401952 20.21308317 -3.015625 23.828125 C-3.7065625 24.23675781 -4.3975 24.64539063 -5.109375 25.06640625 C-12.93891831 30.17066622 -17.60983602 38.94007127 -20.015625 47.828125 C-20.29910521 50.47572322 -20.51726753 53.05093943 -20.640625 55.703125 C-20.69863281 56.73566406 -20.69863281 56.73566406 -20.7578125 57.7890625 C-20.85110666 59.46835746 -20.93440738 61.14820267 -21.015625 62.828125 C-21.64210937 63.00988281 -22.26859375 63.19164062 -22.9140625 63.37890625 C-23.73132813 63.63027344 -24.54859375 63.88164062 -25.390625 64.140625 C-26.20273438 64.38425781 -27.01484375 64.62789063 -27.8515625 64.87890625 C-30.34747129 65.74180685 -30.34747129 65.74180685 -32.015625 68.828125 C-33.500625 69.323125 -33.500625 69.323125 -35.015625 69.828125 C-36.70101101 71.82477814 -36.70101101 71.82477814 -38.015625 73.828125 C-39.35875899 73.18143086 -40.68953678 72.50908922 -42.015625 71.828125 C-42.77875 71.456875 -43.541875 71.085625 -44.328125 70.703125 C-48.16872733 68.023635 -51.41397278 64.7343521 -54.015625 60.828125 C-54.015625 59.508125 -54.015625 58.188125 -54.015625 56.828125 C-54.675625 56.828125 -55.335625 56.828125 -56.015625 56.828125 C-59.90900024 50.28229093 -60.72375264 45.14149927 -60.640625 37.578125 C-60.63369629 36.55976562 -60.62676758 35.54140625 -60.61962891 34.4921875 C-60.38130829 26.25498419 -58.95917223 20.57245393 -54.015625 13.828125 C-53.59410156 13.17328125 -53.17257813 12.5184375 -52.73828125 11.84375 C-41.13021184 -4.10411436 -17.26939987 -7.78465175 0 0 Z " fill="#FBCC02" transform="translate(108.015625,67.171875)"/>
<path d="M0 0 C1.25362335 -0.00671722 2.5072467 -0.01343445 3.79885864 -0.02035522 C7.20627271 -0.03599316 10.61344285 -0.04270408 14.02087569 -0.0439868 C16.15933166 -0.04541794 18.29776279 -0.04970558 20.43621254 -0.05498123 C27.92412539 -0.07343211 35.41196751 -0.08165824 42.89990234 -0.08007812 C49.83511042 -0.07887868 56.77000633 -0.09995496 63.70513552 -0.13156545 C69.6962306 -0.15788145 75.68722468 -0.16843903 81.67837697 -0.16716731 C85.24023258 -0.16666206 88.80181036 -0.1720982 92.36360741 -0.19352341 C113.72422528 -0.31311618 133.39869433 -0.39798846 149.84301758 15.01318359 C161.80653186 27.76405896 163.61539421 43.20168989 163.37036133 59.84912109 C163.36287473 61.37467191 163.35719329 62.90023252 163.35321045 64.42579651 C163.33814377 68.38623955 163.29903356 72.3460691 163.25439453 76.30627441 C163.21302494 80.36930041 163.19511169 84.4324283 163.17504883 88.49560547 C163.13251431 96.42752352 163.06450283 104.35894853 162.97973633 112.29052734 C162.64973633 112.29052734 162.31973633 112.29052734 161.97973633 112.29052734 C161.64973633 91.17052734 161.31973633 70.05052734 160.97973633 48.29052734 C159.98973633 48.62052734 158.99973633 48.95052734 157.97973633 49.29052734 C157.97973633 48.30052734 157.97973633 47.31052734 157.97973633 46.29052734 C157.31973633 46.29052734 156.65973633 46.29052734 155.97973633 46.29052734 C155.97973633 46.95052734 155.97973633 47.61052734 155.97973633 48.29052734 C155.31973633 48.29052734 154.65973633 48.29052734 153.97973633 48.29052734 C153.9525825 46.540614 153.93327082 44.79057789 153.91723633 43.04052734 C153.90563477 42.06599609 153.8940332 41.09146484 153.88208008 40.08740234 C153.96778056 37.63294056 154.27267566 35.6288382 154.97973633 33.29052734 C153.77317383 32.67177734 153.77317383 32.67177734 152.54223633 32.04052734 C148.56193468 27.76898411 149.07738908 22.9366317 148.97973633 17.29052734 C146.66973633 17.29052734 144.35973633 17.29052734 141.97973633 17.29052734 C141.64973633 16.30052734 141.31973633 15.31052734 140.97973633 14.29052734 C140.64973633 14.95052734 140.31973633 15.61052734 139.97973633 16.29052734 C137.99973633 16.29052734 136.01973633 16.29052734 133.97973633 16.29052734 C133.97973633 15.63052734 133.97973633 14.97052734 133.97973633 14.29052734 C132.32973633 13.96052734 130.67973633 13.63052734 128.97973633 13.29052734 C128.97973633 12.96052734 128.97973633 12.63052734 128.97973633 12.29052734 C130.62973633 11.96052734 132.27973633 11.63052734 133.97973633 11.29052734 C131.99973633 10.30052734 131.99973633 10.30052734 129.97973633 9.29052734 C129.97973633 8.30052734 129.97973633 7.31052734 129.97973633 6.29052734 C128.98973633 6.95052734 127.99973633 7.61052734 126.97973633 8.29052734 C122.93913592 7.9966655 119.41095684 7.53401768 115.97973633 5.29052734 C115.64973633 4.63052734 115.31973633 3.97052734 114.97973633 3.29052734 C113.98973633 2.96052734 112.99973633 2.63052734 111.97973633 2.29052734 C111.97973633 2.95052734 111.97973633 3.61052734 111.97973633 4.29052734 C111.31973633 4.29052734 110.65973633 4.29052734 109.97973633 4.29052734 C109.97973633 3.30052734 109.97973633 2.31052734 109.97973633 1.29052734 C95.51482497 1.3745521 81.05002533 1.46985944 66.58527374 1.57805443 C59.86847696 1.62809724 53.15169186 1.67454081 46.43481445 1.71240234 C39.9508422 1.74931729 33.46699992 1.79569449 26.98313904 1.84859085 C24.5112893 1.86710173 22.03941174 1.88222185 19.56752014 1.89387131 C16.10127495 1.91079007 12.63532531 1.93983942 9.16918945 1.97167969 C8.15066895 1.97383987 7.13214844 1.97600006 6.08276367 1.97822571 C0.38016593 2.04499938 -4.54752015 2.66549352 -10.02026367 4.29052734 C-10.35026367 5.94052734 -10.68026367 7.59052734 -11.02026367 9.29052734 C-11.68026367 8.96052734 -12.34026367 8.63052734 -13.02026367 8.29052734 C-12.69026367 7.63052734 -12.36026367 6.97052734 -12.02026367 6.29052734 C-13.49994691 6.43102252 -14.97900884 6.57807561 -16.45776367 6.72802734 C-17.69333008 6.84984375 -17.69333008 6.84984375 -18.95385742 6.97412109 C-21.00688393 7.07983549 -21.00688393 7.07983549 -22.02026367 8.29052734 C-22.92776367 8.20802734 -23.83526367 8.12552734 -24.77026367 8.04052734 C-28.24343073 7.98274867 -28.24343073 7.98274867 -30.89526367 10.79052734 C-31.59651367 11.61552734 -32.29776367 12.44052734 -33.02026367 13.29052734 C-32.36026367 13.62052734 -31.70026367 13.95052734 -31.02026367 14.29052734 C-33.92626628 15.54717712 -35.81630952 16.29052734 -39.02026367 16.29052734 C-40.74866715 17.4345012 -40.74866715 17.4345012 -42.02026367 19.29052734 C-42.12338867 20.05365234 -42.22651367 20.81677734 -42.33276367 21.60302734 C-43.02026367 24.29052734 -43.02026367 24.29052734 -46.02026367 26.91552734 C-49.13448294 29.74731145 -49.51581343 31.95044195 -49.83276367 36.10302734 C-49.85983398 37.05822266 -49.8869043 38.01341797 -49.91479492 38.99755859 C-50.02026367 41.29052734 -50.02026367 41.29052734 -51.02026367 42.29052734 C-51.0610715 44.29011098 -51.06280723 46.29097988 -51.02026367 48.29052734 C-52.34026367 48.29052734 -53.66026367 48.29052734 -55.02026367 48.29052734 C-54.85010742 47.77876953 -54.67995117 47.26701172 -54.50463867 46.73974609 C-53.85836497 43.47189442 -54.12111082 40.42845798 -54.27026367 37.10302734 C-54.40420361 30.24397967 -53.21178535 25.73839372 -49.02026367 20.29052734 C-48.58584961 19.67951172 -48.15143555 19.06849609 -47.70385742 18.43896484 C-35.88359473 3.15007806 -18.15315516 -0.01418086 0 0 Z " fill="#327AD1" transform="translate(74.020263671875,15.70947265625)"/>
<path d="M0 0 C0.99 0.495 0.99 0.495 2 1 C2.73075648 3.3140622 3.40138258 5.64828869 4 8 C4.66 8 5.32 8 6 8 C6.37125 9.03125 6.7425 10.0625 7.125 11.125 C9.3730782 16.36344637 12.96823332 19.78093999 17.8125 22.6875 C20 24 20 24 21 27 C20.3430259 28.67051107 19.67503125 30.33670357 19 32 C18.09882509 39.5971141 18.7405329 45.61079935 23 52 C23.53625 52.9075 24.0725 53.815 24.625 54.75 C33.29006989 62.95901358 45.50715216 61.5698187 56.5859375 61.49609375 C58.49345963 61.49624901 60.40098206 61.49774251 62.3085022 61.50050354 C66.29435277 61.50188292 70.27984152 61.48940928 74.265625 61.46655273 C79.34472624 61.43820852 84.42322532 61.44090125 89.50237083 61.45364285 C93.43863966 61.46063872 97.37477229 61.45276573 101.31102371 61.44038582 C103.18229269 61.43590646 105.05357648 61.43550335 106.92484665 61.43945122 C127.70346175 61.53644223 127.70346175 61.53644223 145 51 C152.71136389 42.43826014 153.54646288 33.13511817 154 22 C154.33 22 154.66 22 155 22 C156.86038333 39.43098294 156.86038333 39.43098294 152.91015625 47.1171875 C151.78239043 49.10161899 151.78239043 49.10161899 152 52 C151.21625 52.28875 150.4325 52.5775 149.625 52.875 C146.90328368 53.84912254 146.90328368 53.84912254 145 56 C144.6596875 57.0209375 144.6596875 57.0209375 144.3125 58.0625 C143.879375 58.701875 143.44625 59.34125 143 60 C139.6875 60.625 139.6875 60.625 136 61 C133.19932935 61.83486387 133.19932935 61.83486387 131 63 C130.67 63.66 130.34 64.32 130 65 C126.7 64.67 123.4 64.34 120 64 C120 64.66 120 65.32 120 66 C112.08 66 104.16 66 96 66 C96 66.66 96 67.32 96 68 C75.21 68.33 54.42 68.66 33 69 C32.34 66.69 31.68 64.38 31 62 C28.68970915 61.25740651 26.354248 60.588562 24 60 C22.5625 57.375 22.5625 57.375 22 55 C21.34 55 20.68 55 20 55 C19.01 57.475 19.01 57.475 18 60 C17.34 60 16.68 60 16 60 C16.01160156 59.2265625 16.02320312 58.453125 16.03515625 57.65625 C16.12342771 50.70570414 16.12342771 50.70570414 15.375 43.8125 C14.75355636 37.49448964 16.39912769 31.7590744 19 26 C18.484375 26.185625 17.96875 26.37125 17.4375 26.5625 C14.14091261 27.15419517 11.27754265 26.567267 8 26 C8 24.02 8 22.04 8 20 C6.35 20 4.7 20 3 20 C1.875 16.25 1.875 16.25 3 14 C3 12.68 3 11.36 3 10 C2.67 11.32 2.34 12.64 2 14 C1.34 14 0.68 14 0 14 C0 9.38 0 4.76 0 0 Z " fill="#68D1F8" transform="translate(48,116)"/>
<path d="M0 0 C1.18400391 -0.01224609 2.36800781 -0.02449219 3.58789062 -0.03710938 C13.24085497 -0.05333284 13.24085497 -0.05333284 17.3046875 1.25390625 C20.63166753 2.28656629 22.40587919 2.13707773 25.75 1.3125 C26.61496094 1.10882813 27.47992188 0.90515625 28.37109375 0.6953125 C29.01175781 0.52773438 29.65242188 0.36015625 30.3125 0.1875 C31.3025 2.1675 31.3025 2.1675 32.3125 4.1875 C32.6425 3.1975 32.9725 2.2075 33.3125 1.1875 C35.48124252 1.69353992 37.31217627 2.18733813 39.3125 3.1875 C39.291875 3.93 39.27125 4.6725 39.25 5.4375 C39.19624388 8.0923477 39.19624388 8.0923477 39.875 10.1875 C40.3125 12.1875 40.3125 12.1875 39.3125 17.1875 C43.6025 17.1875 47.8925 17.1875 52.3125 17.1875 C52.3125 17.8475 52.3125 18.5075 52.3125 19.1875 C53.6325 18.8575 54.9525 18.5275 56.3125 18.1875 C57.3025 19.6725 57.3025 19.6725 58.3125 21.1875 C60.35952006 21.98513627 60.35952006 21.98513627 62.6875 22.375 C63.84378906 22.61283203 63.84378906 22.61283203 65.0234375 22.85546875 C67.58675916 23.28319929 67.58675916 23.28319929 71.3125 23.1875 C71.3125 25.85416667 71.3125 28.52083333 71.3125 31.1875 C71.9725 31.5175 72.6325 31.8475 73.3125 32.1875 C73.3125 33.8375 73.3125 35.4875 73.3125 37.1875 C72.3534375 36.135625 72.3534375 36.135625 71.375 35.0625 C61.77488345 25.54328331 50.7276657 21.92552316 37.53515625 20.97265625 C34.3125 20.1875 34.3125 20.1875 32.68359375 17.90625 C32.23113281 17.0090625 31.77867188 16.111875 31.3125 15.1875 C21.81708879 5.67604924 12.74764509 1.850931 -0.5 1.5 C-12.80042239 1.50458586 -21.56422234 6.06088293 -30.6875 14.1875 C-32.28609307 15.98246041 -32.28609307 15.98246041 -33.4375 17.75 C-33.83839844 18.34039062 -34.23929688 18.93078125 -34.65234375 19.5390625 C-35.80017472 21.36692918 -36.81783449 23.21098747 -37.6875 25.1875 C-38.6775 24.5275 -39.6675 23.8675 -40.6875 23.1875 C-40.9453125 20.6484375 -40.9453125 20.6484375 -40.8125 17.5625 C-40.70883326 13.81246843 -40.69723705 10.27488328 -41.25 6.5625 C-41.6875 3.1875 -41.6875 3.1875 -40.6875 1.1875 C-38.375 1 -38.375 1 -35.6875 1.1875 C-34.6875 2.1875 -33.6875 3.1875 -32.6875 4.1875 C-30.36890781 3.95564078 -28.66574926 3.17726436 -26.5625 2.1875 C-18.24649974 -0.70502183 -8.68849295 0.00477652 0 0 Z " fill="#338FF0" transform="translate(88.6875,62.8125)"/>
<path d="M0 0 C0.66 0 1.32 0 2 0 C4.04177715 32.08415232 4.04177715 32.08415232 -1 43 C-1.37511719 43.83789062 -1.75023437 44.67578125 -2.13671875 45.5390625 C-4.85659992 50.94268024 -8.5512701 55.88744616 -13 60 C-13.66 60 -14.32 60 -15 60 C-15 60.66 -15 61.32 -15 62 C-26.37350457 71.58111847 -40.85056423 72.14797911 -54.94262695 72.16113281 C-56.86371277 72.16858017 -56.86371277 72.16858017 -58.8236084 72.17617798 C-62.317563 72.18921518 -65.81149848 72.19572949 -69.30547357 72.20018864 C-71.49395197 72.20313263 -73.68242529 72.20723978 -75.87090111 72.21169281 C-82.73464312 72.22534303 -89.59837335 72.23502254 -96.46212798 72.2388947 C-104.35525382 72.24337365 -112.24820635 72.26092433 -120.14127952 72.2898953 C-126.26385861 72.31157954 -132.38638916 72.32160252 -138.5090062 72.32293582 C-142.1562168 72.32397876 -145.80326394 72.32977699 -149.45043373 72.34775543 C-153.52345779 72.36744565 -157.59612287 72.36292042 -161.66918945 72.35644531 C-162.86072128 72.3656601 -164.05225311 72.37487488 -165.27989197 72.3843689 C-172.63162147 72.34789878 -179.01874881 71.31935813 -186 69 C-186 68.67 -186 68.34 -186 68 C-179.97767819 66.53380093 -175.09632423 65.67471212 -169 67 C-169 67.66 -169 68.32 -169 69 C-156.60982721 70.05989954 -144.28009428 70.14696407 -131.8515625 70.1328125 C-129.7422179 70.1334878 -127.63287338 70.13445971 -125.52352905 70.13571167 C-121.13140106 70.13717605 -116.73929356 70.13507365 -112.34716797 70.13037109 C-106.73560787 70.12465335 -101.12409539 70.12797373 -95.512537 70.13394356 C-91.16811772 70.13756531 -86.82370964 70.13640352 -82.47929001 70.13381577 C-80.41016001 70.13315206 -78.34102896 70.13395532 -76.27190018 70.13629532 C-73.37996994 70.1388508 -70.488116 70.13494158 -67.59619141 70.12939453 C-66.75444366 70.13141876 -65.91269592 70.13344299 -65.04544067 70.13552856 C-60.30120581 70.11877379 -55.68597145 69.82524711 -50.97928429 69.22030449 C-48.31375456 68.92361736 -45.67836772 68.9313239 -43 69 C-43 68.34 -43 67.68 -43 67 C-42.34773437 67.01160156 -41.69546875 67.02320313 -41.0234375 67.03515625 C-33.95411232 67.13735312 -33.95411232 67.13735312 -27 66 C-26.67 65.34 -26.34 64.68 -26 64 C-25.195625 63.690625 -24.39125 63.38125 -23.5625 63.0625 C-20.70136041 62.15452711 -20.70136041 62.15452711 -19 59 C-17.68 59 -16.36 59 -15 59 C-15 57.68 -15 56.36 -15 55 C-14.01 54.01 -14.01 54.01 -13 53 C-12.01 53 -11.02 53 -10 53 C-10 52.34 -10 51.68 -10 51 C-9.34 51 -8.68 51 -8 51 C-8 48.36 -8 45.72 -8 43 C-7.01 42.67 -6.02 42.34 -5 42 C-2.30505469 36.50645764 -0.8311244 32.07952155 -1 26 C-0.34 26 0.32 26 1 26 C0.84789062 25.50242188 0.69578125 25.00484375 0.5390625 24.4921875 C-0.2032316 21.06042203 -0.40694006 17.62037249 -0.625 14.125 C-0.6765625 13.43019531 -0.728125 12.73539063 -0.78125 12.01953125 C-1.04853899 7.84510622 -0.85960892 4.09276488 0 0 Z " fill="#83DDE9" transform="translate(234,165)"/>
<path d="M0 0 C0 0.99 0 1.98 0 3 C0.66 3.33 1.32 3.66 2 4 C-0.75 10.875 -0.75 10.875 -3 12 C-5.6723621 12.13415472 -8.32250488 12.04318541 -11 12 C-10.67 10.02 -10.34 8.04 -10 6 C-10.66 6.99 -11.32 7.98 -12 9 C-13.155 9.5775 -14.31 10.155 -15.5 10.75 C-17.70709008 11.92466749 -18.7783024 12.55468533 -19.90234375 14.8125 C-20.5267248 16.94977804 -20.5267248 16.94977804 -21 20 C-22.875 20.625 -22.875 20.625 -25 21 C-25.66 20.34 -26.32 19.68 -27 19 C-28.56272189 23.39253773 -28.56272189 23.39253773 -29 28 C-29.99 28.66 -30.98 29.32 -32 30 C-32.72382467 32.05925139 -32.72382467 32.05925139 -33 34 C-32.34 34.33 -31.68 34.66 -31 35 C-31 37.97 -31 40.94 -31 44 C-31.66 44 -32.32 44 -33 44 C-33.37125 44.639375 -33.7425 45.27875 -34.125 45.9375 C-36.33961532 48.37357686 -36.9122074 48.27782747 -40.0625 48.5 C-42.0115625 48.7475 -42.0115625 48.7475 -44 49 C-45.3169667 50.88370471 -45.3169667 50.88370471 -46 53 C-47.31647119 53.69937532 -48.65022151 54.36729133 -50 55 C-50.66 55.99 -51.32 56.98 -52 58 C-53.32 57.67 -54.64 57.34 -56 57 C-52.375 52.125 -52.375 52.125 -49 51 C-48.34 50.01 -47.68 49.02 -47 48 C-44.8359375 47.26953125 -44.8359375 47.26953125 -42.375 46.8125 C-41.55773437 46.65394531 -40.74046875 46.49539062 -39.8984375 46.33203125 C-39.27195312 46.22246094 -38.64546875 46.11289063 -38 46 C-38.05800781 45.05640625 -38.11601563 44.1128125 -38.17578125 43.140625 C-38.49897034 33.94358694 -37.49081731 27.25609868 -33 19 C-32.65066406 18.33484375 -32.30132812 17.6696875 -31.94140625 16.984375 C-25.52441588 6.5479511 -12.12015757 -0.881466 0 0 Z " fill="#FCF7DB" transform="translate(125,84)"/>
<path d="M0 0 C1.19238281 -0.00386719 2.38476562 -0.00773437 3.61328125 -0.01171875 C5.34384766 -0.00978516 5.34384766 -0.00978516 7.109375 -0.0078125 C8.66350098 -0.00612061 8.66350098 -0.00612061 10.24902344 -0.00439453 C13.32117036 0.12806869 16.23043513 0.55749313 19.25 1.125 C19.25 2.115 19.25 3.105 19.25 4.125 C20.57 4.125 21.89 4.125 23.25 4.125 C25.171875 5.875 25.171875 5.875 27 8.125 C27.61359375 8.8675 28.2271875 9.61 28.859375 10.375 C29.31828125 10.9525 29.7771875 11.53 30.25 12.125 C27.25 12.125 27.25 12.125 25.8125 10.953125 C25.296875 10.43234375 24.78125 9.9115625 24.25 9.375 C15.61129512 1.85843617 5.25360771 1.11483503 -5.77734375 1.5390625 C-16.03370085 2.39130431 -25.70572335 8.23592945 -32.359375 16.00390625 C-32.73578125 16.55949219 -33.1121875 17.11507812 -33.5 17.6875 C-33.90089844 18.27789062 -34.30179688 18.86828125 -34.71484375 19.4765625 C-35.86267472 21.30442918 -36.88033449 23.14848747 -37.75 25.125 C-38.74 24.465 -39.73 23.805 -40.75 23.125 C-41.0078125 20.5859375 -41.0078125 20.5859375 -40.875 17.5 C-40.77133326 13.74996843 -40.75973705 10.21238328 -41.3125 6.5 C-41.75 3.125 -41.75 3.125 -40.75 1.125 C-38.4375 0.9375 -38.4375 0.9375 -35.75 1.125 C-34.75 2.125 -33.75 3.125 -32.75 4.125 C-30.43140781 3.89314078 -28.72824926 3.11476436 -26.625 2.125 C-18.27560448 -0.77913757 -8.71907659 -0.02864976 0 0 Z " fill="#368EF1" transform="translate(88.75,62.875)"/>
<path d="M0 0 C0.33 0 0.66 0 1 0 C2.20085015 5.65444049 2.14076151 11.18953434 2.12939453 16.93969727 C2.13114685 18.03159866 2.13289917 19.12350006 2.13470459 20.24848938 C2.13910144 23.8544779 2.13619127 27.46041724 2.1328125 31.06640625 C2.1334865 33.58259592 2.13445733 36.09878553 2.13571167 38.61497498 C2.13718599 43.89151508 2.13513988 49.16804248 2.13037109 54.44458008 C2.12494903 60.5133679 2.12667778 66.58212202 2.1321975 72.65090901 C2.1373169 78.51776925 2.13673027 84.38461689 2.13381577 90.2514782 C2.13315225 92.73317406 2.13395465 95.21487078 2.13629532 97.69656563 C2.15461219 122.59178425 2.15461219 122.59178425 1 133 C0.34 133 -0.32 133 -1 133 C-1 133.99 -1 134.98 -1 136 C-1.66 136 -2.32 136 -3 136 C-2.85932413 135.4254841 -2.71864826 134.85096821 -2.57370949 134.25904274 C-0.99287623 127.22187615 -0.6947589 120.49306599 -0.68115234 113.29833984 C-0.67110672 112.06792969 -0.6610611 110.83751953 -0.65071106 109.56982422 C-0.62528606 106.22751132 -0.60833019 102.88536483 -0.59528303 99.54299498 C-0.5795517 96.03826906 -0.55279392 92.53362686 -0.5272522 89.02896118 C-0.48064016 82.40654008 -0.44381157 75.78410291 -0.41057932 69.16160262 C-0.372233 61.61611765 -0.32285603 54.07071714 -0.27259517 46.5253036 C-0.16953703 31.01693029 -0.08019253 15.50850944 0 0 Z " fill="#D6F7FF" transform="translate(237,68)"/>
<path d="M0 0 C-2.44047557 2.9542599 -4.26623725 3.43837426 -8 4 C-9.71759897 4.07412553 -11.43781526 4.09849179 -13.15693665 4.08229065 C-14.68179436 4.07173141 -14.68179436 4.07173141 -16.23745728 4.06095886 C-17.34156952 4.04801285 -18.44568176 4.03506683 -19.58325195 4.02172852 C-20.75441055 4.01212097 -21.92556915 4.00251343 -23.13221741 3.99261475 C-27.00096699 3.95964982 -30.86960277 3.91930767 -34.73828125 3.87890625 C-37.42156185 3.85460269 -40.10484297 3.83070802 -42.78813171 3.80735779 C-49.12746717 3.75129536 -55.46673962 3.68992382 -61.80600661 3.62663645 C-69.02481164 3.55482745 -76.243667 3.48894979 -83.46253264 3.42356598 C-98.30842016 3.28896888 -113.15422928 3.14693734 -128 3 C-128 2.34 -128 1.68 -128 1 C-112.49211208 0.86920804 -96.98422096 0.73880112 -81.47632599 0.60884857 C-74.27523141 0.54849616 -67.07413792 0.48801928 -59.87304688 0.42724609 C-53.5942542 0.37425691 -47.3154596 0.32150461 -41.03666258 0.26903296 C-37.71422397 0.2412593 -34.39178674 0.21333426 -31.0693512 0.18519592 C-27.35417937 0.15375154 -23.63900427 0.12272581 -19.92382812 0.09179688 C-18.83050171 0.08244614 -17.73717529 0.0730954 -16.61071777 0.0634613 C-11.07356878 0.01781555 -5.5373366 -0.0097609 0 0 Z " fill="#D5F8FC" transform="translate(200,236)"/>
<path d="M0 0 C0.33 0 0.66 0 1 0 C2.86038333 17.43098294 2.86038333 17.43098294 -1.08984375 25.1171875 C-2.21760957 27.10161899 -2.21760957 27.10161899 -2 30 C-2.78375 30.28875 -3.5675 30.5775 -4.375 30.875 C-7.09671632 31.84912254 -7.09671632 31.84912254 -9 34 C-9.226875 34.680625 -9.45375 35.36125 -9.6875 36.0625 C-10.120625 36.701875 -10.55375 37.34125 -11 38 C-14.3125 38.625 -14.3125 38.625 -18 39 C-20.80067065 39.83486387 -20.80067065 39.83486387 -23 41 C-23.495 41.99 -23.495 41.99 -24 43 C-24.64857468 42.83923477 -25.29714935 42.67846954 -25.96537781 42.51283264 C-29.8322907 41.85934795 -33.64402148 41.82296486 -37.55395508 41.79467773 C-38.40324585 41.78477814 -39.25253662 41.77487854 -40.12756348 41.76467896 C-42.92485805 41.73318091 -45.72216959 41.7083529 -48.51953125 41.68359375 C-50.46295097 41.66301412 -52.40636632 41.64201738 -54.34977722 41.62062073 C-59.45755463 41.5655043 -64.56537174 41.51604912 -69.67321777 41.46777344 C-74.88830079 41.41748217 -80.10332636 41.36183595 -85.31835938 41.30664062 C-95.54552381 41.19918664 -105.77273819 41.09771345 -116 41 C-116 40.67 -116 40.34 -116 40 C-114.42384918 39.99120064 -114.42384918 39.99120064 -112.81585693 39.98222351 C-102.87133451 39.92479482 -92.92702655 39.85192939 -82.98272324 39.76428509 C-77.87131097 39.71972262 -72.75997582 39.68043598 -67.6484375 39.65356445 C-62.70752299 39.62738982 -57.76690753 39.58688908 -52.8261795 39.53681374 C-50.94936111 39.52024021 -49.07249111 39.50866711 -47.19561005 39.50238609 C-26.3538737 39.5443979 -26.3538737 39.5443979 -9 29 C-1.28863611 20.43826014 -0.45353712 11.13511817 0 0 Z " fill="#74C0E1" transform="translate(202,138)"/>
<path d="M0 0 C5.64665695 3.45894693 13.53457012 8.73174234 15.8125 15.16796875 C15.86921875 15.71582031 15.9259375 16.26367188 15.984375 16.828125 C15.324375 16.828125 14.664375 16.828125 13.984375 16.828125 C13.984375 15.838125 13.984375 14.848125 13.984375 13.828125 C13.365625 13.725 12.746875 13.621875 12.109375 13.515625 C9.984375 12.828125 9.984375 12.828125 7.984375 9.828125 C6.994375 9.498125 6.004375 9.168125 4.984375 8.828125 C4.68015625 8.19261719 4.3759375 7.55710937 4.0625 6.90234375 C2.0897188 3.10688427 -2.14703906 2.18245408 -6.015625 0.828125 C-9.3741475 0.05590177 -9.3741475 0.05590177 -12.015625 -0.171875 C-12.015625 -0.831875 -12.015625 -1.491875 -12.015625 -2.171875 C-19.21098061 -1.86568965 -25.61025514 -0.6010124 -32.015625 2.828125 C-32.345625 3.488125 -32.675625 4.148125 -33.015625 4.828125 C-34.005625 4.828125 -34.995625 4.828125 -36.015625 4.828125 C-36.015625 5.488125 -36.015625 6.148125 -36.015625 6.828125 C-38.325625 6.498125 -40.635625 6.168125 -43.015625 5.828125 C-43.015625 6.488125 -43.015625 7.148125 -43.015625 7.828125 C-43.82 8.3025 -44.624375 8.776875 -45.453125 9.265625 C-48.3074326 10.62796172 -48.3074326 10.62796172 -49.015625 13.828125 C-50.005625 14.158125 -50.995625 14.488125 -52.015625 14.828125 C-53.70312204 17.37484755 -53.70312204 17.37484755 -55.203125 20.390625 C-55.73292969 21.40253906 -56.26273438 22.41445312 -56.80859375 23.45703125 C-57.20691406 24.23949219 -57.60523438 25.02195312 -58.015625 25.828125 C-58.345625 25.168125 -58.675625 24.508125 -59.015625 23.828125 C-54.08873632 10.42012446 -44.96705149 4.01431681 -32.70703125 -2.375 C-22.66022822 -5.34967027 -9.42783646 -4.24985374 0 0 Z " fill="#F5C20C" transform="translate(108.015625,67.171875)"/>
<path d="M0 0 C0.66 0.33 1.32 0.66 2 1 C0.65731636 4.48473243 -0.86033096 7.80195955 -2.5625 11.125 C-5.26668837 16.40498798 -6.22659856 20.78995185 -6.5625 26.6875 C-6.62727539 27.7403418 -6.62727539 27.7403418 -6.69335938 28.81445312 C-6.7991736 30.54275206 -6.90006581 32.2713511 -7 34 C-7.62648438 34.18175781 -8.25296875 34.36351562 -8.8984375 34.55078125 C-9.71570313 34.80214844 -10.53296875 35.05351562 -11.375 35.3125 C-12.18710938 35.55613281 -12.99921875 35.79976562 -13.8359375 36.05078125 C-16.33184629 36.91368185 -16.33184629 36.91368185 -18 40 C-19.485 40.495 -19.485 40.495 -21 41 C-22.68538601 42.99665314 -22.68538601 42.99665314 -24 45 C-25.34313399 44.35330586 -26.67391178 43.68096422 -28 43 C-29.175625 42.4121875 -29.175625 42.4121875 -30.375 41.8125 C-33.89590448 39.38139929 -36.34722241 36.32736708 -39 33 C-38.34 31.68 -37.68 30.36 -37 29 C-36.01 29.33 -35.02 29.66 -34 30 C-34 30.66 -34 31.32 -34 32 C-33.34 32 -32.68 32 -32 32 C-32 31.01 -32 30.02 -32 29 C-31.34 29 -30.68 29 -30 29 C-30 32.96 -30 36.92 -30 41 C-26.56769552 40.73606499 -26.56769552 40.73606499 -23 40 C-22.34 39.01 -21.68 38.02 -21 37 C-22.485 36.505 -22.485 36.505 -24 36 C-23.67 35.34 -23.34 34.68 -23 34 C-21.4840625 34.0309375 -21.4840625 34.0309375 -19.9375 34.0625 C-16.19672743 34.00312266 -12.68755102 33.60204915 -9 33 C-9.03480469 32.0821875 -9.06960937 31.164375 -9.10546875 30.21875 C-9.26662381 22.91305405 -8.92261985 17.66357326 -6 11 C-5.814375 9.14375 -5.814375 9.14375 -5.625 7.25 C-5 4 -5 4 -2.4375 1.5625 C-1.633125 1.046875 -0.82875 0.53125 0 0 Z " fill="#EEDE30" transform="translate(94,96)"/>
<path d="M0 0 C0.33 0 0.66 0 1 0 C1.06058594 0.62648437 1.12117188 1.25296875 1.18359375 1.8984375 C1.26738281 2.71570313 1.35117187 3.53296875 1.4375 4.375 C1.51871094 5.18710938 1.59992187 5.99921875 1.68359375 6.8359375 C1.89090114 9.04272805 1.89090114 9.04272805 3 11 C3.33 10.34 3.66 9.68 4 9 C4.66 9 5.32 9 6 9 C6.95494281 15.57849492 6.8931507 21.41816638 6 28 C7.65 28.33 9.3 28.66 11 29 C11.1546875 30.3921875 11.1546875 30.3921875 11.3125 31.8125 C12.04812977 35.22314712 12.5624441 35.75744857 15 38 C15.28875 38.845625 15.5775 39.69125 15.875 40.5625 C16.79150853 43.19775008 16.79150853 43.19775008 19.375 44.25 C21.57674481 44.87906994 23.76465801 45.50325734 26 46 C25.67 46.66 25.34 47.32 25 48 C25.598125 48.268125 26.19625 48.53625 26.8125 48.8125 C28.97224808 49.98493467 30.35790256 51.19369282 32 53 C23.13222296 52.15544981 15.9010517 45.66847171 10.33203125 39.00390625 C1.73833394 26.96389331 -0.21297314 14.41118272 0 0 Z " fill="#85DCEB" transform="translate(16,180)"/>
<path d="M0 0 C0 0.99 0 1.98 0 3 C0.66 3.33 1.32 3.66 2 4 C-0.75 10.875 -0.75 10.875 -3 12 C-5.6723621 12.13415472 -8.32250488 12.04318541 -11 12 C-10.67 10.02 -10.34 8.04 -10 6 C-10.99 7.485 -10.99 7.485 -12 9 C-13.155 9.5775 -14.31 10.155 -15.5 10.75 C-17.70709008 11.92466749 -18.7783024 12.55468533 -19.90234375 14.8125 C-20.5267248 16.94977804 -20.5267248 16.94977804 -21 20 C-22.32 20.33 -23.64 20.66 -25 21 C-25.96449953 17.93113786 -26.18713695 16.4513303 -24.9375 13.4375 C-21.466371 9.07059577 -17.55457424 6.65347932 -12 6 C-11.67 5.01 -11.34 4.02 -11 3 C-9.2578125 2.05078125 -9.2578125 2.05078125 -7.125 1.3125 C-6.42632812 1.06113281 -5.72765625 0.80976562 -5.0078125 0.55078125 C-3 0 -3 0 0 0 Z " fill="#FBF5E0" transform="translate(125,84)"/>
<path d="M0 0 C1.65 0 3.3 0 5 0 C5 1.98 5 3.96 5 6 C5.62567871 5.95399658 6.25135742 5.90799316 6.89599609 5.8605957 C9.72146976 5.66185164 12.54792368 5.48689757 15.375 5.3125 C16.35984375 5.23966797 17.3446875 5.16683594 18.359375 5.09179688 C19.77089844 5.00961914 19.77089844 5.00961914 21.2109375 4.92578125 C22.08024902 4.86817627 22.94956055 4.81057129 23.84521484 4.7512207 C24.55629395 4.83331787 25.26737305 4.91541504 26 5 C26.99 6.485 26.99 6.485 28 8 C30.04702006 8.79763627 30.04702006 8.79763627 32.375 9.1875 C33.14585937 9.34605469 33.91671875 9.50460938 34.7109375 9.66796875 C37.27425916 10.09569929 37.27425916 10.09569929 41 10 C41 12.66666667 41 15.33333333 41 18 C41.66 18.33 42.32 18.66 43 19 C43 20.65 43 22.3 43 24 C42.360625 23.29875 41.72125 22.5975 41.0625 21.875 C31.46238345 12.35578331 20.4151657 8.73802316 7.22265625 7.78515625 C4 7 4 7 2.12109375 4.55859375 C1.75113281 3.71425781 1.38117188 2.86992188 1 2 C0.67 1.34 0.34 0.68 0 0 Z " fill="#3C98F0" transform="translate(119,76)"/>
<path d="M0 0 C18.34957308 -0.02333574 36.69914233 -0.0409825 55.04872704 -0.05181217 C63.56829702 -0.05697369 72.0878578 -0.06401365 80.60742188 -0.07543945 C88.03100675 -0.08539068 95.45458497 -0.09185448 102.87817633 -0.09408849 C106.8107642 -0.09539485 110.74333299 -0.098476 114.67591476 -0.10573006 C118.37434401 -0.11249718 122.07274626 -0.11461554 125.77118111 -0.11310768 C127.78182951 -0.1135157 129.79247495 -0.11890731 131.80311584 -0.12442017 C132.99226089 -0.1230455 134.18140594 -0.12167084 135.40658569 -0.12025452 C136.44452459 -0.12117631 137.48246349 -0.1220981 138.55185509 -0.12304783 C141 0 141 0 143 1 C143 1.66 143 2.32 143 3 C141.18466515 2.75601219 141.18466515 2.75601219 139.33265686 2.50709534 C133.11612295 1.82143352 126.92520133 1.86807261 120.67749023 1.88647461 C118.71505119 1.88625557 118.71505119 1.88625557 116.71296692 1.8860321 C113.15161598 1.88574701 109.59029922 1.89159704 106.02895617 1.89860606 C102.29738717 1.90488767 98.56581725 1.90544719 94.83424377 1.90663147 C87.77967532 1.90973067 80.72512249 1.91792493 73.6705609 1.92798096 C65.63423156 1.93918605 57.59790145 1.9446636 49.56156623 1.94967639 C33.04103503 1.96010882 16.52051951 1.97768077 0 2 C0 1.34 0 0.68 0 0 Z " fill="#DCF3FE" transform="translate(58,15)"/>
<path d="M0 0 C0.99 0.495 0.99 0.495 2 1 C2.73075648 3.3140622 3.40138258 5.64828869 4 8 C4.66 8 5.32 8 6 8 C6.37125 9.03125 6.7425 10.0625 7.125 11.125 C9.7601017 17.26528414 14.30701637 20.7468665 20 24 C20.33 24.66 20.66 25.32 21 26 C16.37078475 27.0161692 12.65537393 26.83796731 8 26 C8 24.02 8 22.04 8 20 C6.35 20 4.7 20 3 20 C1.875 16.25 1.875 16.25 3 14 C3 12.68 3 11.36 3 10 C2.67 11.32 2.34 12.64 2 14 C1.34 14 0.68 14 0 14 C0 9.38 0 4.76 0 0 Z " fill="#53B5F4" transform="translate(48,116)"/>
<path d="M0 0 C0.66 0.33 1.32 0.66 2 1 C1.67773438 1.70511719 1.35546875 2.41023437 1.0234375 3.13671875 C-0.92205705 8.57964815 -0.9988293 14.85935117 0.7578125 20.3828125 C1.71685432 22.36885973 2.77756098 24.16634148 4 26 C4.53625 26.9075 5.0725 27.815 5.625 28.75 C9.18275453 32.12050429 13.41352113 33.43324481 18 35 C18 35.33 18 35.66 18 36 C7.90420561 35.65186916 7.90420561 35.65186916 4.3125 33.0625 C3 31 3 31 3 29 C2.34 29 1.68 29 1 29 C0.01 31.475 0.01 31.475 -1 34 C-1.66 34 -2.32 34 -3 34 C-2.98259766 32.83984375 -2.98259766 32.83984375 -2.96484375 31.65625 C-2.87657229 24.70570414 -2.87657229 24.70570414 -3.625 17.8125 C-4.24644364 11.49448964 -2.60087231 5.7590744 0 0 Z " fill="#78CBE4" transform="translate(67,142)"/>
<path d="M0 0 C3 1 3 1 5.0625 4.375 C8.10925488 10.85373164 9.1539181 17.88128783 9 25 C8.01 25.33 7.02 25.66 6 26 C6 25.01 6 24.02 6 23 C5.34 23 4.68 23 4 23 C4 23.66 4 24.32 4 25 C3.34 25 2.68 25 2 25 C1.97284617 23.25008666 1.95353449 21.50005055 1.9375 19.75 C1.92589844 18.77546875 1.91429687 17.8009375 1.90234375 16.796875 C1.98804423 14.34241322 2.29293934 12.33831086 3 10 C1.35 8.68 -0.3 7.36 -2 6 C-1.34 4.02 -0.68 2.04 0 0 Z " fill="#2F85EB" transform="translate(226,39)"/>
<path d="M0 0 C0.99 0.33 1.98 0.66 3 1 C2.360625 1.556875 1.72125 2.11375 1.0625 2.6875 C-1.18619133 4.78894821 -1.18619133 4.78894821 -1.375 7.375 C-2 10 -2 10 -5 12.625 C-8.11421927 15.45678411 -8.49554976 17.65991461 -8.8125 21.8125 C-8.83957031 22.76769531 -8.86664062 23.72289063 -8.89453125 24.70703125 C-9 27 -9 27 -10 28 C-10.04080783 29.99958364 -10.04254356 32.00045254 -10 34 C-11.32 34 -12.64 34 -14 34 C-13.82855469 33.46632812 -13.65710938 32.93265625 -13.48046875 32.3828125 C-12.88938533 29.4514232 -13.12919529 26.85819437 -13.3125 23.875 C-13.39509072 15.71687175 -10.30810412 10.62523441 -4.921875 4.72265625 C-3 3 -3 3 -1 3 C-0.67 2.01 -0.34 1.02 0 0 Z " fill="#2581ED" transform="translate(33,30)"/>
<path d="M0 0 C0.66 1.32 1.32 2.64 2 4 C2.33 4 2.66 4 3 4 C3 6.97 3 9.94 3 13 C2.34 13 1.68 13 1 13 C0.443125 13.9590625 0.443125 13.9590625 -0.125 14.9375 C-2.33961532 17.37357686 -2.9122074 17.27782747 -6.0625 17.5 C-8.0115625 17.7475 -8.0115625 17.7475 -10 18 C-11.3169667 19.88370471 -11.3169667 19.88370471 -12 22 C-13.31647119 22.69937532 -14.65022151 23.36729133 -16 24 C-16.66 24.99 -17.32 25.98 -18 27 C-19.32 26.67 -20.64 26.34 -22 26 C-18.375 21.125 -18.375 21.125 -15 20 C-14.34 19.01 -13.68 18.02 -13 17 C-9.37604494 15.503149 -6.96003244 15 -3 15 C-3.05220703 14.00419922 -3.05220703 14.00419922 -3.10546875 12.98828125 C-3.37434095 4.21792619 -3.37434095 4.21792619 0 0 Z " fill="#FBFADE" transform="translate(91,115)"/>
<path d="M0 0 C-2 2 -2 2 -4.5625 3 C-7.14841441 3.74870114 -7.14841441 3.74870114 -8 6 C-8.64857468 5.83923477 -9.29714935 5.67846954 -9.96537781 5.51283264 C-13.8322907 4.85934795 -17.64402148 4.82296486 -21.55395508 4.79467773 C-22.40324585 4.78477814 -23.25253662 4.77487854 -24.12756348 4.76467896 C-26.92485805 4.73318091 -29.72216959 4.7083529 -32.51953125 4.68359375 C-34.46295097 4.66301412 -36.40636632 4.64201738 -38.34977722 4.62062073 C-43.45755463 4.5655043 -48.56537174 4.51604912 -53.67321777 4.46777344 C-58.88830079 4.41748217 -64.10332636 4.36183595 -69.31835938 4.30664062 C-79.54552381 4.19918664 -89.77273819 4.09771345 -100 4 C-100 3.67 -100 3.34 -100 3 C-98.94257095 2.99191315 -97.88514191 2.98382629 -96.79566956 2.97549438 C-86.8061062 2.8978419 -76.81667584 2.81005503 -66.82728672 2.71247292 C-61.69225808 2.66263328 -56.55724878 2.6163025 -51.42211914 2.578125 C-46.46182519 2.54111599 -41.50169813 2.49471444 -36.54154778 2.44193649 C-34.65386841 2.42347525 -32.76615338 2.40833713 -30.87841988 2.39665604 C-28.2241945 2.37965123 -25.5703445 2.35058347 -22.91625977 2.31884766 C-21.75855072 2.31560738 -21.75855072 2.31560738 -20.57745361 2.31230164 C-15.8467898 2.24054694 -11.54409516 1.59528434 -6.95436001 0.43849754 C-4.60359612 -0.08894069 -2.40025097 -0.1548549 0 0 Z " fill="#78C9E4" transform="translate(186,175)"/>
<path d="M0 0 C2.35171131 0.59861742 4.6859378 1.26924352 7 2 C7.33 2.66 7.66 3.32 8 4 C12.81089 6.10423049 17.40729271 6.30458136 22.57568359 6.31884766 C23.83520844 6.33391609 23.83520844 6.33391609 25.12017822 6.34928894 C27.87959139 6.38003664 30.6389079 6.3971326 33.3984375 6.4140625 C35.31801175 6.43278092 37.23757782 6.45235484 39.15713501 6.4727478 C44.19748105 6.52400377 49.23785374 6.56366448 54.27832031 6.60089111 C59.42649902 6.64097174 64.57456745 6.69204556 69.72265625 6.7421875 C79.81502663 6.83886941 89.90745937 6.92329895 100 7 C100 7.33 100 7.66 100 8 C88.82938776 8.09292776 77.65886841 8.16388036 66.48794746 8.20724869 C61.30009371 8.2280697 56.1125056 8.2562867 50.92480469 8.30175781 C45.91271246 8.34541174 40.90087479 8.36917832 35.88860703 8.37950897 C33.98214591 8.38686537 32.07569778 8.40123032 30.16934586 8.42292023 C9.59722326 8.64754671 9.59722326 8.64754671 3 4 C1.25393677 1.86090088 1.25393677 1.86090088 0 0 Z " fill="#E5FEFE" transform="translate(72,170)"/>
<path d="M0 0 C5.7786902 5.13661351 9.70033689 11.62786616 10.23828125 19.4765625 C10.46495209 28.04347822 10.6302303 36.10455365 4.36328125 42.73046875 C3.91339844 43.14941406 3.46351563 43.56835938 3 44 C3 42.68 3 41.36 3 40 C3.66 40 4.32 40 5 40 C5.33 37.36 5.66 34.72 6 32 C5.01 31.67 4.02 31.34 3 31 C3.66 30.525625 4.32 30.05125 5 29.5625 C8.73818182 24.77295454 7.1084715 18.69527512 6.5 12.9375 C6.335 11.638125 6.17 10.33875 6 9 C5.01 8.67 4.02 8.34 3 8 C2.67 6.35 2.34 4.7 2 3 C1.34 3 0.68 3 0 3 C0 2.01 0 1.02 0 0 Z " fill="#E8FAFD" transform="translate(192,120)"/>
<path d="M0 0 C0.33 0 0.66 0 1 0 C1.25351502 1.97619538 1.47644645 3.95631993 1.6875 5.9375 C1.81511719 7.03964844 1.94273438 8.14179687 2.07421875 9.27734375 C2.00746911 12.6253651 1.71128048 14.01573463 0.52734375 16.98046875 C-1.42894055 22.65106005 -1.47613837 28.08213031 -1.51171875 34.03515625 C-1.52966995 35.15442001 -1.54762115 36.27368378 -1.56611633 37.42686462 C-1.61993176 40.97203906 -1.65402311 44.51708109 -1.6875 48.0625 C-1.7206984 50.47853394 -1.75519037 52.89455046 -1.79101562 55.31054688 C-1.87564158 61.20691243 -1.9441123 67.10329574 -2 73 C-2.33 73 -2.66 73 -3 73 C-3.07010043 65.54921925 -3.12311149 58.0984735 -3.15543652 50.64743614 C-3.17096591 47.18606128 -3.19196487 43.72491515 -3.22631836 40.26367188 C-3.26573007 36.26690722 -3.27981405 32.27037555 -3.29296875 28.2734375 C-3.30845261 27.05514252 -3.32393646 25.83684753 -3.33988953 24.58163452 C-3.341541 15.98025532 -2.1019548 8.33264477 0 0 Z " fill="#5197D6" transform="translate(19,47)"/>
<path d="M0 0 C0.66 0 1.32 0 2 0 C2 0.66 2 1.32 2 2 C2.66 2 3.32 2 4 2 C4.33 3.65 4.66 5.3 5 7 C5.64324219 6.979375 6.28648437 6.95875 6.94921875 6.9375 C15.97065903 7.14341019 21.82080265 10.93812423 29 16 C29.78503906 16.53882812 30.57007813 17.07765625 31.37890625 17.6328125 C32.18134766 18.30957031 32.18134766 18.30957031 33 19 C33 19.66 33 20.32 33 21 C33.66 21 34.32 21 35 21 C36.01241247 22.88923398 37.00947425 24.78669944 38 26.6875 C38.556875 27.74324219 39.11375 28.79898438 39.6875 29.88671875 C40.9672274 32.92226262 41.28851043 34.76026826 41 38 C38.77285811 35.77285811 38.36254504 34.38629102 37.375 31.4375 C33.97853444 22.79649202 28.21817138 16.78607826 19.796875 12.90234375 C16.54693924 11.85383096 13.45465326 11.49059874 10.0625 11.125 C4.41008113 10.4408647 4.41008113 10.4408647 2.54296875 8.43359375 C1.75 6.5625 1.75 6.5625 1 3 C0.67 2.01 0.34 1.02 0 0 Z " fill="#539DD9" transform="translate(162,100)"/>
<path d="M0 0 C11.7919662 -0.93918315 22.55366564 2.94347533 32 10 C32.66 10.99 33.32 11.98 34 13 C33.01 13.33 32.02 13.66 31 14 C31 13.01 31 12.02 31 11 C27.7 11 24.4 11 21 11 C20.67 9.35 20.34 7.7 20 6 C18.700625 5.814375 18.700625 5.814375 17.375 5.625 C14 5 14 5 11.0625 4 C7.92317667 2.87089686 7.92317667 2.87089686 4.1875 2.5 C3.135625 2.335 2.08375 2.17 1 2 C0.67 1.34 0.34 0.68 0 0 Z " fill="#C4E9FA" transform="translate(124,83)"/>
<path d="M0 0 C5.64665695 3.45894693 13.53457012 8.73174234 15.8125 15.16796875 C15.86921875 15.71582031 15.9259375 16.26367188 15.984375 16.828125 C15.324375 16.828125 14.664375 16.828125 13.984375 16.828125 C13.984375 15.838125 13.984375 14.848125 13.984375 13.828125 C13.365625 13.725 12.746875 13.621875 12.109375 13.515625 C9.984375 12.828125 9.984375 12.828125 7.984375 9.828125 C6.994375 9.498125 6.004375 9.168125 4.984375 8.828125 C4.68015625 8.19261719 4.3759375 7.55710937 4.0625 6.90234375 C2.0897188 3.10688427 -2.14703906 2.18245408 -6.015625 0.828125 C-9.3741475 0.05590177 -9.3741475 0.05590177 -12.015625 -0.171875 C-12.015625 -0.831875 -12.015625 -1.491875 -12.015625 -2.171875 C-14.76647047 -2.05775696 -17.51574447 -1.93101551 -20.265625 -1.796875 C-21.04292969 -1.7659375 -21.82023437 -1.735 -22.62109375 -1.703125 C-26.60654473 -1.4987429 -29.51024912 -1.23386081 -33.015625 0.828125 C-35.265625 0.453125 -35.265625 0.453125 -37.015625 -0.171875 C-26.04981547 -5.72867336 -11.08646052 -4.99752366 0 0 Z " fill="#CDC152" transform="translate(108.015625,67.171875)"/>
<path d="M0 0 C0.66 0 1.32 0 2 0 C4.01944214 31.73318353 4.01944214 31.73318353 -1 43 C-1.33 43 -1.66 43 -2 43 C-2.13163065 35.1021611 -2.13163065 35.1021611 -1 31 C-0.96213099 29.33376361 -0.95372155 27.66602403 -1 26 C-0.34 26 0.32 26 1 26 C0.84789062 25.50242188 0.69578125 25.00484375 0.5390625 24.4921875 C-0.2032316 21.06042203 -0.40694006 17.62037249 -0.625 14.125 C-0.6765625 13.43019531 -0.728125 12.73539063 -0.78125 12.01953125 C-1.04853899 7.84510622 -0.85960892 4.09276488 0 0 Z " fill="#78D5E8" transform="translate(234,165)"/>
<path d="M0 0 C2.33524782 2.25740623 4.18705073 4.2805761 6 7 C6 8.32 6 9.64 6 11 C6.60585937 10.95359375 7.21171875 10.9071875 7.8359375 10.859375 C15.72779685 10.51941798 22.52150553 12.01843331 28.625 17.25 C29.305625 18.11625 29.305625 18.11625 30 19 C28.3125 19.8125 28.3125 19.8125 26 20 C25.30648437 19.2059375 24.61296875 18.411875 23.8984375 17.59375 C20.09071279 14.18629824 17.26301275 14.03600938 12.3125 13.6875 C11.54099609 13.61466797 10.76949219 13.54183594 9.97460938 13.46679688 C7.31553599 13.22295172 4.67164947 13 2 13 C1.66127487 11.58461283 1.32925376 10.16762037 1 8.75 C0.814375 7.96109375 0.62875 7.1721875 0.4375 6.359375 C0 4 0 4 0 0 Z " fill="#D3F2FC" transform="translate(160,99)"/>
<path d="M0 0 C1.98 0 3.96 0 6 0 C6.33 1.32 6.66 2.64 7 4 C6.34 3.67 5.68 3.34 5 3 C5.33 4.65 5.66 6.3 6 8 C7.5778125 7.9690625 7.5778125 7.9690625 9.1875 7.9375 C12.32704904 7.98896802 14.96883396 8.26517187 18 9 C18.12375 9.928125 18.12375 9.928125 18.25 10.875 C18.81258459 13.18437567 18.81258459 13.18437567 21.0625 14.25 C22.0215625 14.62125 22.0215625 14.62125 23 15 C22.01 15.495 22.01 15.495 21 16 C20.360625 15.566875 19.72125 15.13375 19.0625 14.6875 C14.61804763 12.23851604 9.97809881 11.74104798 5 11 C4.67 9.35 4.34 7.7 4 6 C3.34 6 2.68 6 2 6 C2 5.34 2 4.68 2 4 C1.34 4 0.68 4 0 4 C0 2.68 0 1.36 0 0 Z " fill="#43A2F0" transform="translate(162,96)"/>
<path d="M0 0 C2.9375 0.75 2.9375 0.75 6 2 C6.875 4.125 6.875 4.125 7 6 C7.598125 6.0825 8.19625 6.165 8.8125 6.25 C11.62932273 7.21576779 12.47799132 8.48868567 14 11 C14 11.66 14 12.32 14 13 C11.36 13.33 8.72 13.66 6 14 C6 13.01 6 12.02 6 11 C4.68 10.67 3.36 10.34 2 10 C2.33 9.34 2.66 8.68 3 8 C3.99 8 4.98 8 6 8 C6 7.34 6 6.68 6 6 C5.34 6 4.68 6 4 6 C4 5.34 4 4.68 4 4 C3.01 4 2.02 4 1 4 C0.67 2.68 0.34 1.36 0 0 Z " fill="#F9C20A" transform="translate(106,70)"/>
<path d="M0 0 C0.33 0 0.66 0 1 0 C1.04898438 1.27875 1.09796875 2.5575 1.1484375 3.875 C1.22352991 5.58335222 1.29907487 7.29168459 1.375 9 C1.4059375 9.83917969 1.436875 10.67835937 1.46875 11.54296875 C1.72025214 16.95026487 2.36830028 21.8251809 4 27 C5.97034802 28.5748108 5.97034802 28.5748108 8 29 C7.67 28.34 7.34 27.68 7 27 C6.960008 25.00039988 6.95653201 22.99952758 7 21 C7.66 21.33 8.32 21.66 9 22 C9 22.66 9 23.32 9 24 C9.66 24 10.32 24 11 24 C10.125 29.75 10.125 29.75 9 32 C8.34 32 7.68 32 7 32 C6.67 32.99 6.34 33.98 6 35 C6 33.68 6 32.36 6 31 C5.34 31 4.68 31 4 31 C-0.16119272 24.18481822 -0.50652223 18.88312552 -0.25 11 C-0.23195312 9.93910156 -0.21390625 8.87820312 -0.1953125 7.78515625 C-0.14853748 5.1891428 -0.08301142 2.59506472 0 0 Z " fill="#E9D52C" transform="translate(48,93)"/>
<path d="M0 0 C0.66 0.33 1.32 0.66 2 1 C0.75010211 4.28890181 -0.69764298 7.26097507 -2.4375 10.3125 C-5.93495206 17.13149676 -6.85579118 24.50217632 -8 32 C-8.33 32 -8.66 32 -9 32 C-9.32317148 24.14812995 -9.11090052 18.21728922 -6 11 C-5.87625 9.7625 -5.7525 8.525 -5.625 7.25 C-5 4 -5 4 -2.4375 1.5625 C-1.633125 1.046875 -0.82875 0.53125 0 0 Z " fill="#ECD616" transform="translate(94,96)"/>
<path d="M0 0 C4.04165139 -0.02915731 8.0832755 -0.04685173 12.125 -0.0625 C13.83816406 -0.07506836 13.83816406 -0.07506836 15.5859375 -0.08789062 C16.69453125 -0.09111328 17.803125 -0.09433594 18.9453125 -0.09765625 C19.96125488 -0.10289307 20.97719727 -0.10812988 22.02392578 -0.11352539 C25.09114726 0.00347691 27.98633134 0.43223583 31 1 C31 1.99 31 2.98 31 4 C32.32 4 33.64 4 35 4 C36.921875 5.75 36.921875 5.75 38.75 8 C39.36359375 8.7425 39.9771875 9.485 40.609375 10.25 C41.06828125 10.8275 41.5271875 11.405 42 12 C39 12 39 12 37.5625 10.828125 C37.046875 10.30734375 36.53125 9.7865625 36 9.25 C25.35144117 0.02270672 12.25194842 1.54406423 -1 2 C-0.67 1.34 -0.34 0.68 0 0 Z " fill="#548FAB" transform="translate(77,63)"/>
<path d="M0 0 C1.65 0 3.3 0 5 0 C5 1.98 5 3.96 5 6 C5.76183594 5.96519531 6.52367188 5.93039063 7.30859375 5.89453125 C14.20951742 5.71360816 19.67893063 6.21388406 26 9 C26.90492188 9.39832031 27.80984375 9.79664062 28.7421875 10.20703125 C33.85536884 12.60428766 33.85536884 12.60428766 36 14 C36.495 15.485 36.495 15.485 37 17 C36.44957031 16.7215625 35.89914063 16.443125 35.33203125 16.15625 C26.76436293 11.90829385 18.91388132 8.18081331 9.25 7.6875 C4.27876962 7.31976515 4.27876962 7.31976515 1.875 4.5625 C1.58625 3.716875 1.2975 2.87125 1 2 C0.67 1.34 0.34 0.68 0 0 Z " fill="#498ECB" transform="translate(119,76)"/>
<path d="M0 0 C0.33 0.99 0.66 1.98 1 3 C0.67 3.66 0.34 4.32 0 5 C-0.15067214 6.4465242 -0.24861036 7.8987934 -0.31640625 9.3515625 C-0.35830078 10.20234375 -0.40019531 11.053125 -0.44335938 11.9296875 C-0.48267578 12.81914063 -0.52199219 13.70859375 -0.5625 14.625 C-0.60568359 15.5221875 -0.64886719 16.419375 -0.69335938 17.34375 C-0.79956861 19.56234283 -0.90161194 21.7810488 -1 24 C-2.65 23.67 -4.3 23.34 -6 23 C-5.85892253 21.54119891 -5.71197585 20.08296449 -5.5625 18.625 C-5.48128906 17.81289062 -5.40007813 17.00078125 -5.31640625 16.1640625 C-5 14 -5 14 -4 12 C-3.34 12 -2.68 12 -2 12 C-2.02320313 11.30132812 -2.04640625 10.60265625 -2.0703125 9.8828125 C-2.08835938 8.97273438 -2.10640625 8.06265625 -2.125 7.125 C-2.14820313 6.22007813 -2.17140625 5.31515625 -2.1953125 4.3828125 C-2 2 -2 2 0 0 Z " fill="#4E9FD9" transform="translate(49,88)"/>
<path d="M0 0 C2.31 0 4.62 0 7 0 C7.33 0.99 7.66 1.98 8 3 C7.0409375 3.6496875 7.0409375 3.6496875 6.0625 4.3125 C3.73253997 5.91239177 3.73253997 5.91239177 3 9 C3.99 9 4.98 9 6 9 C6.33 11.64 6.66 14.28 7 17 C6.34 17.33 5.68 17.66 5 18 C4.34 15.36 3.68 12.72 3 10 C2.34 10 1.68 10 1 10 C1.020625 8.906875 1.04125 7.81375 1.0625 6.6875 C1.18544452 3.05615809 1.18544452 3.05615809 0 0 Z " fill="#EEF1ED" transform="translate(125,85)"/>
<path d="M0 0 C0.66 0.33 1.32 0.66 2 1 C1.01 1.33 0.02 1.66 -1 2 C-1 2.66 -1 3.32 -1 4 C-1.99 4 -2.98 4 -4 4 C-4.2475 4.804375 -4.495 5.60875 -4.75 6.4375 C-5.1625 7.283125 -5.575 8.12875 -6 9 C-7.32488113 9.36548445 -8.66018514 9.6937566 -10 10 C-13.82960168 13.24043219 -16.3024972 16.84390457 -18.7890625 21.1328125 C-20.01645554 23.02537338 -21.35309488 24.46733107 -23 26 C-21.67296754 21.35538639 -19.84314124 17.89916513 -17 14 C-16.29875 13.030625 -15.5975 12.06125 -14.875 11.0625 C-10.95603211 6.41870733 -5.4126834 2.7063417 0 0 Z " fill="#3D72BB" transform="translate(43,21)"/>
<path d="M0 0 C0.66 0.33 1.32 0.66 2 1 C2.33 1.99 2.66 2.98 3 4 C5.91038896 5.4158649 8.846502 6.29922267 12 7 C11.67 7.66 11.34 8.32 11 9 C11.598125 9.268125 12.19625 9.53625 12.8125 9.8125 C14.97224808 10.98493467 16.35790256 12.19369282 18 14 C9.45058598 13.18577009 4.10768789 7.51862154 -2 2 C-1.34 1.34 -0.68 0.68 0 0 Z " fill="#8EE4F0" transform="translate(30,219)"/>
<path d="M0 0 C0.99 0.33 1.98 0.66 3 1 C3 1.66 3 2.32 3 3 C3.66 3 4.32 3 5 3 C5 2.01 5 1.02 5 0 C5.66 0 6.32 0 7 0 C7 3.63 7 7.26 7 11 C2.41173718 9.06273348 0.19471406 7.51135667 -2 3 C-1.34 2.01 -0.68 1.02 0 0 Z " fill="#F6DC14" transform="translate(57,125)"/>
<path d="M0 0 C1.9453125 0.6875 1.9453125 0.6875 4 2 C6.09201527 8.92529194 4.79598056 16.15746249 3 23 C2.67 23 2.34 23 2 23 C0.85149303 18.26120232 0.67098443 13.53708638 0.4375 8.6875 C0.39431641 7.85154297 0.35113281 7.01558594 0.30664062 6.15429688 C0.20114693 4.10303065 0.10012685 2.0515352 0 0 Z " fill="#58B7F4" transform="translate(202,131)"/>
<path d="M0 0 C1.00417969 0.27714844 2.00835937 0.55429688 3.04296875 0.83984375 C11.71748045 3.16185204 19.97852784 4.69104547 29 5 C28.67 5.66 28.34 6.32 28 7 C18.02259629 7.3085795 8.83744185 7.1164137 0 2 C0 1.34 0 0.68 0 0 Z " fill="#E2FDFE" transform="translate(43,232)"/>
<path d="M0 0 C-0.50603992 2.16874252 -0.99983813 3.99967627 -2 6 C-4.0625 6.625 -4.0625 6.625 -6 7 C-6.33 8.65 -6.66 10.3 -7 12 C-8.32 12 -9.64 12 -11 12 C-11 11.01 -11 10.02 -11 9 C-10.34 9 -9.68 9 -9 9 C-9 8.01 -9 7.02 -9 6 C-9.99 5.67 -10.98 5.34 -12 5 C-11.360625 4.71125 -10.72125 4.4225 -10.0625 4.125 C-7.84793921 3.17176549 -7.84793921 3.17176549 -7 1 C-4.61370553 0.38812962 -2.46459429 0 0 0 Z " fill="#F9FBE9" transform="translate(88,132)"/>
<path d="M0 0 C1.95253896 3.90507793 0.03326856 8.91470695 -1 13 C-1.515625 13.845625 -2.03125 14.69125 -2.5625 15.5625 C-4.83394142 19.41407457 -4.75226975 23.60065251 -5 28 C-5.33 28 -5.66 28 -6 28 C-6.62961738 17.75822392 -6.00824622 10.22830944 -1 1 C-0.67 0.67 -0.34 0.34 0 0 Z " fill="#FDF5A4" transform="translate(93,102)"/>
<path d="M0 0 C-1 3 -1 3 -4 5 C-5.2188121 8.55672179 -5.2188121 8.55672179 -6 12 C-7.32 12.33 -8.64 12.66 -10 13 C-10.99467334 9.83513029 -11.20298932 8.44871324 -9.8125 5.375 C-6.71368964 1.31448987 -5.22007453 0 0 0 Z " fill="#FDF6E6" transform="translate(110,92)"/>
<path d="M0 0 C0 0.66 0 1.32 0 2 C4.95 2.33 9.9 2.66 15 3 C15 3.33 15 3.66 15 4 C-4.37751787 4.43274854 -4.37751787 4.43274854 -11 2 C-11.33 1.34 -11.66 0.68 -12 0 C-7.74433453 -1.16063604 -4.3164922 -0.76173392 0 0 Z " fill="#7CEAF4" transform="translate(65,232)"/>
<path d="M0 0 C5.11532327 4.54695401 7.84279003 9.5283701 10 16 C10.07051114 18.73865287 10.09357765 21.45027588 10.0625 24.1875 C10.05798828 24.93708984 10.05347656 25.68667969 10.04882812 26.45898438 C10.03706354 28.30602383 10.01912865 30.15302213 10 32 C9.67 32 9.34 32 9 32 C9 27.05 9 22.1 9 17 C8.34 17 7.68 17 7 17 C5.64560332 14.29120665 5.93498549 11.99066732 6 9 C5.01 8.67 4.02 8.34 3 8 C2.67 6.35 2.34 4.7 2 3 C1.34 3 0.68 3 0 3 C0 2.01 0 1.02 0 0 Z " fill="#CEF4FD" transform="translate(192,120)"/>
<path d="M0 0 C2.3125 -0.25 2.3125 -0.25 5 0 C6.8125 2 6.8125 2 8 4 C7.34 4 6.68 4 6 4 C6 4.66 6 5.32 6 6 C5.34 6 4.68 6 4 6 C3.67 7.32 3.34 8.64 3 10 C2.01 10 1.02 10 0 10 C-1.125 2.25 -1.125 2.25 0 0 Z " fill="#2B91F2" transform="translate(48,64)"/>
<path d="M0 0 C1.32 0.66 2.64 1.32 4 2 C3.2575 2.721875 2.515 3.44375 1.75 4.1875 C-0.69493133 6.68799795 -2.84580482 9.25154408 -5 12 C-5.66 12.66 -6.32 13.32 -7 14 C-7.33 11.36 -7.66 8.72 -8 6 C-7.05125 5.38125 -6.1025 4.7625 -5.125 4.125 C-2.05554891 2.18029031 -2.05554891 2.18029031 0 0 Z " fill="#EEF9FD" transform="translate(29,27)"/>
<path d="M0 0 C0.66 0 1.32 0 2 0 C2 1.98 2 3.96 2 6 C-2.62 6 -7.24 6 -12 6 C-9 2 -9 2 -6.5 1.25 C-4 1 -4 1 -1 1 C-0.67 0.67 -0.34 0.34 0 0 Z " fill="#3288DE" transform="translate(94,57)"/>
<path d="M0 0 C-2.0112515 1.00562575 -4.0151233 2.00687423 -6.0625 2.9375 C-8.03612997 3.89327635 -8.03612997 3.89327635 -9.375 5.4375 C-12.9001082 8.82702712 -17.23810091 10.29972072 -22 11 C-16.85564663 4.75328519 -8.27552415 -0.6541315 0 0 Z " fill="#FDF0A3" transform="translate(122,84)"/>
<path d="M0 0 C0.99 0.33 1.98 0.66 3 1 C2.34 1 1.68 1 1 1 C0.83510632 11.04821399 0.83510632 11.04821399 2 21 C1.34 21.33 0.68 21.66 0 22 C-1.76274181 18.19471609 -2.27134667 15.1839474 -2.25 11 C-2.25515625 9.989375 -2.2603125 8.97875 -2.265625 7.9375 C-1.99363426 4.9296024 -1.26321118 2.72693207 0 0 Z " fill="#E0F9FE" transform="translate(68,143)"/>
<path d="M0 0 C2.97 0 5.94 0 9 0 C6.70806599 2.29193401 4.65508675 4.06148233 2.0625 5.9375 C-0.87110454 8.10393723 -3.51806021 10.31123189 -6 13 C-5.34 10.03 -4.68 7.06 -4 4 C-2.35 4.33 -0.7 4.66 1 5 C0.67 3.35 0.34 1.7 0 0 Z " fill="#418AC4" transform="translate(60,68)"/>
<path d="M0 0 C0.33 0 0.66 0 1 0 C2.03335117 8.05515909 2.42546443 14.51042522 -1 22 C-1.33 22 -1.66 22 -2 22 C-2.05454409 19.64551325 -2.0939279 17.29232125 -2.125 14.9375 C-2.14820312 13.62652344 -2.17140625 12.31554687 -2.1953125 10.96484375 C-1.99417522 6.88175701 -1.27165462 3.85000947 0 0 Z " fill="#4088DF" transform="translate(19,47)"/>
<path d="M0 0 C-0.33 1.65 -0.66 3.3 -1 5 C-1.66 4.67 -2.32 4.34 -3 4 C-2.67 3.34 -2.34 2.68 -2 2 C-3.47968324 2.14049518 -4.95874516 2.28754826 -6.4375 2.4375 C-7.67306641 2.55931641 -7.67306641 2.55931641 -8.93359375 2.68359375 C-10.98662025 2.78930815 -10.98662025 2.78930815 -12 4 C-13.66617115 4.04063832 -15.33388095 4.042721 -17 4 C-17 3.34 -17 2.68 -17 2 C-13.91271496 -0.05819003 -12.64024762 -0.35931563 -9.0625 -0.6875 C-7.78052734 -0.81705078 -7.78052734 -0.81705078 -6.47265625 -0.94921875 C-4.09047864 -0.99814183 -2.26490737 -0.69891573 0 0 Z " fill="#1D7AED" transform="translate(64,20)"/>
<path d="M0 0 C0.44730469 0.39832031 0.89460938 0.79664063 1.35546875 1.20703125 C4.76498998 4.19490593 8.08270235 6.69570727 12 9 C12.33 9.66 12.66 10.32 13 11 C8.98195309 11.84098656 5.98196457 12.05404945 2 11 C2 10.34 2 9.68 2 9 C2.66 9 3.32 9 4 9 C2.80023567 5.91489173 1.49997444 2.94952958 0 0 Z " fill="#67B8CC" transform="translate(56,131)"/>
<path d="M0 0 C-3 2 -3 2 -6 2 C-6.2475 2.61875 -6.495 3.2375 -6.75 3.875 C-8.23281451 6.39578467 -9.40863958 6.7852998 -12 8 C-12.99 9.485 -12.99 9.485 -14 11 C-15.32 10.67 -16.64 10.34 -18 10 C-14.375 5.125 -14.375 5.125 -11 4 C-10.34 3.01 -9.68 2.02 -9 1 C-3.72897196 -1.24299065 -3.72897196 -1.24299065 0 0 Z " fill="#FCF7AC" transform="translate(87,131)"/>
<path d="M0 0 C2 2 2 2 2 6 C-1.69037278 7.37095624 -3.70883835 6.60010967 -7.25 5.0625 C-8.14203125 4.68222656 -9.0340625 4.30195313 -9.953125 3.91015625 C-10.62859375 3.60980469 -11.3040625 3.30945313 -12 3 C-12 2.67 -12 2.34 -12 2 C-7.84782943 0.41822074 -4.45263035 -0.40478458 0 0 Z " fill="#F8FAF5" transform="translate(214,16)"/>
<path d="M0 0 C3.34249629 0.59687434 5.46436342 1.73603877 8 4 C8 4.66 8 5.32 8 6 C8.66 6 9.32 6 10 6 C11.01241247 7.88923398 12.00947425 9.78669944 13 11.6875 C13.556875 12.74324219 14.11375 13.79898438 14.6875 14.88671875 C15.9672274 17.92226262 16.28851043 19.76026826 16 23 C13.77285811 20.77285811 13.36254504 19.38629102 12.375 16.4375 C9.76449771 9.62448455 5.07439907 5.07439907 0 0 Z " fill="#64AEDB" transform="translate(187,115)"/>
<path d="M0 0 C0.33 0 0.66 0 1 0 C1.04898437 0.56847656 1.09796875 1.13695312 1.1484375 1.72265625 C1.50515485 5.40668545 1.92640629 8.75622084 3 12.3125 C4.40311775 17.48649669 4.66703946 22.66386924 5 28 C-0.63160924 19.55258613 -0.1443856 9.77009248 0 0 Z " fill="#87D5E9" transform="translate(16,180)"/>
<path d="M0 0 C0.32613618 4.67461851 -0.29417212 7.16674383 -3 11 C-3.99 10.34 -4.98 9.68 -6 9 C-6.25660094 5.92078868 -6.39431504 3.78863007 -5 1 C-2 0 -2 0 0 0 Z " fill="#3099E8" transform="translate(54,77)"/>
<path d="M0 0 C-3.62353773 2.6123179 -6.48374463 4.64345352 -11 5 C-13.3125 4.5625 -13.3125 4.5625 -15 4 C-14.67 3.01 -14.34 2.02 -14 1 C-11.60589296 -0.19705352 -9.66051959 -0.3543076 -7 -0.625 C-6.113125 -0.72039063 -5.22625 -0.81578125 -4.3125 -0.9140625 C-2 -1 -2 -1 0 0 Z " fill="#348ADF" transform="translate(77,64)"/>
<path d="M0 0 C2.12563103 0.11376617 4.2505261 0.24135631 6.375 0.375 C8.15003906 0.47941406 8.15003906 0.47941406 9.9609375 0.5859375 C13 1 13 1 15 3 C14.195625 3.144375 13.39125 3.28875 12.5625 3.4375 C10.07896294 3.74135249 10.07896294 3.74135249 9 5 C2.60465116 4.30232558 2.60465116 4.30232558 0 3 C0 2.01 0 1.02 0 0 Z " fill="#1E78ED" transform="translate(192,19)"/>
<path d="M0 0 C0.66 0.66 1.32 1.32 2 2 C1.505 3.11375 1.01 4.2275 0.5 5.375 C-1.1274506 8.65415749 -1.1274506 8.65415749 -1 11 C-2.32 10.67 -3.64 10.34 -5 10 C-4.34 10 -3.68 10 -3 10 C-2.87625 9.0925 -2.7525 8.185 -2.625 7.25 C-2.07890323 4.41029677 -1.42736197 2.47409409 0 0 Z M-8 12 C-7.34 12.33 -6.68 12.66 -6 13 C-6.66 13.66 -7.32 14.32 -8 15 C-8.69748583 16.31747324 -9.36959957 17.64914193 -10 19 C-11.65 18.67 -13.3 18.34 -15 18 C-14.01 17.67 -13.02 17.34 -12 17 C-11.67 16.01 -11.34 15.02 -11 14 C-10.01 13.34 -9.02 12.68 -8 12 Z " fill="#62C8F2" transform="translate(201,157)"/>
<path d="M0 0 C0.99 0.495 0.99 0.495 2 1 C2.73075648 3.3140622 3.40138258 5.64828869 4 8 C4.66 8 5.32 8 6 8 C6.66 10.31 7.32 12.62 8 15 C6.68 14.67 5.36 14.34 4 14 C3.67 12.68 3.34 11.36 3 10 C2.67 11.32 2.34 12.64 2 14 C1.34 14 0.68 14 0 14 C0 9.38 0 4.76 0 0 Z " fill="#77B5B6" transform="translate(48,116)"/>
<path d="M0 0 C0.87462891 0.00451172 1.74925781 0.00902344 2.65039062 0.01367188 C4.78779047 0.02535166 6.92515463 0.04328311 9.0625 0.0625 C4.34377288 4.78122712 -5.71732039 3.21943579 -11.9609375 3.29296875 C-14.9375 3.0625 -14.9375 3.0625 -16.9375 1.0625 C-11.24910882 0.0822752 -5.76455667 -0.05698801 0 0 Z " fill="#8CE6EB" transform="translate(192.9375,233.9375)"/>
<path d="M0 0 C0.33 0.99 0.66 1.98 1 3 C0.360625 3.433125 -0.27875 3.86625 -0.9375 4.3125 C-3.26746003 5.91239177 -3.26746003 5.91239177 -4 9 C-4.99 9.33 -5.98 9.66 -7 10 C-8.68749704 12.54672255 -8.68749704 12.54672255 -10.1875 15.5625 C-10.71730469 16.57441406 -11.24710938 17.58632812 -11.79296875 18.62890625 C-12.19128906 19.41136719 -12.58960938 20.19382812 -13 21 C-13.33 20.34 -13.66 19.68 -14 19 C-11.20933954 11.40551607 -6.77084613 4.51389742 0 0 Z " fill="#C4C263" transform="translate(63,72)"/>
<path d="M0 0 C4.44711 1.927081 5.94736896 4.75789586 8 9 C8.33 9.66 8.66 10.32 9 11 C8.34 11 7.68 11 7 11 C6.67 11.66 6.34 12.32 6 13 C4.74335022 10.09399739 4 8.20395416 4 5 C1.69 5 -0.62 5 -3 5 C-3 4.01 -3 3.02 -3 2 C-2.01 2 -1.02 2 0 2 C0 1.34 0 0.68 0 0 Z " fill="#2C77D7" transform="translate(219,28)"/>
<path d="M0 0 C0.66 0 1.32 0 2 0 C2.95494281 6.57849492 2.8931507 12.41816638 2 19 C0.02462291 15.65395309 -0.3963055 12.78986003 -0.6875 8.9375 C-0.77386719 7.89464844 -0.86023438 6.85179687 -0.94921875 5.77734375 C-1 3 -1 3 0 0 Z " fill="#6EDCF7" transform="translate(20,189)"/>
<path d="M0 0 C0.66 0.33 1.32 0.66 2 1 C-3.01265823 6.43037975 -3.01265823 6.43037975 -7 7 C-7.33 7.33 -7.66 7.66 -8 8 C-9.66617115 8.04063832 -11.33388095 8.042721 -13 8 C-13.33 7.34 -13.66 6.68 -14 6 C-13.07316406 5.65066406 -12.14632812 5.30132812 -11.19140625 4.94140625 C-9.99386719 4.48636719 -8.79632813 4.03132812 -7.5625 3.5625 C-6.36753906 3.11003906 -5.17257813 2.65757812 -3.94140625 2.19140625 C-1.15554277 1.2855174 -1.15554277 1.2855174 0 0 Z " fill="#DDFCFC" transform="translate(214,229)"/>
<path d="M0 0 C0.33 0 0.66 0 1 0 C1 8.25 1 16.5 1 25 C0.34 25 -0.32 25 -1 25 C-1 25.99 -1 26.98 -1 28 C-1.66 28 -2.32 28 -3 28 C-2.5359375 26.081875 -2.5359375 26.081875 -2.0625 24.125 C-0.44517236 16.18747712 -0.33414127 8.07214961 0 0 Z " fill="#D8FCFE" transform="translate(237,176)"/>
<path d="M0 0 C3 1 3 1 4.1875 2.8125 C5 5 5 5 5 9 C2.03824877 8.38722388 0.61941217 7.74627478 -2 6 C-1.34 4.02 -0.68 2.04 0 0 Z " fill="#2481EF" transform="translate(226,39)"/>
<path d="M0 0 C1.32 0.33 2.64 0.66 4 1 C4 1.99 4 2.98 4 4 C3.01 4 2.02 4 1 4 C1 4.66 1 5.32 1 6 C1.66 6.33 2.32 6.66 3 7 C3 7.99 3 8.98 3 10 C1.68 10 0.36 10 -1 10 C-1 9.34 -1 8.68 -1 8 C-1.66 7.67 -2.32 7.34 -3 7 C-2.01 4.69 -1.02 2.38 0 0 Z " fill="#3190E6" transform="translate(122,64)"/>
<path d="M0 0 C6.51722911 0.33709806 9.32539218 1.44225737 14 6 C13.67 6.66 13.34 7.32 13 8 C12.34 8 11.68 8 11 8 C11 7.01 11 6.02 11 5 C7.7 5 4.4 5 1 5 C0.67 3.35 0.34 1.7 0 0 Z " fill="#D0EEFB" transform="translate(144,89)"/>
<path d="M0 0 C2 2 2 2 2.5 5.0625 C2.665 6.031875 2.83 7.00125 3 8 C3.66 8.33 4.32 8.66 5 9 C4.1875 11.9375 4.1875 11.9375 3 15 C2.01 15.33 1.02 15.66 0 16 C0 10.72 0 5.44 0 0 Z " fill="#5FCCF3" transform="translate(64,160)"/>
<path d="M0 0 C0.66 0.33 1.32 0.66 2 1 C1.52433594 2.01126953 1.52433594 2.01126953 1.0390625 3.04296875 C-0.18702391 6.53224473 -0.41819069 9.62440058 -0.625 13.3125 C-0.69976562 14.56675781 -0.77453125 15.82101563 -0.8515625 17.11328125 C-0.90054688 18.06589844 -0.94953125 19.01851562 -1 20 C-3.19006877 17.80993123 -3.5501804 16.98615183 -4 14 C-3.4020947 9.15610052 -2.00709648 4.44428506 0 0 Z " fill="#6AB9DF" transform="translate(67,142)"/>
<path d="M0 0 C0.99 0.66 1.98 1.32 3 2 C2.24074219 2.40992188 1.48148438 2.81984375 0.69921875 3.2421875 C-0.29464844 3.78101563 -1.28851563 4.31984375 -2.3125 4.875 C-3.29863281 5.40867187 -4.28476562 5.94234375 -5.30078125 6.4921875 C-8.09586458 8.00722126 -8.09586458 8.00722126 -11 10 C-11 7 -11 7 -9.25 4.875 C-6.97324937 2.97770781 -5.82664737 2.54709304 -3 2 C-2.01 1.34 -1.02 0.68 0 0 Z " fill="#DCF1FD" transform="translate(44,18)"/>
<path d="M0 0 C0.66 0 1.32 0 2 0 C2.12886183 7.40239645 1.79725902 14.63959083 1 22 C0.67 22 0.34 22 0 22 C-0.19617816 19.45873828 -0.38217248 16.91739541 -0.5625 14.375 C-0.61857422 13.66214844 -0.67464844 12.94929687 -0.73242188 12.21484375 C-1.02495798 7.96331896 -0.89547939 4.20543653 0 0 Z " fill="#63CCF8" transform="translate(234,165)"/>
<path d="M0 0 C2.35171131 0.59861742 4.6859378 1.26924352 7 2 C7.33 2.66 7.66 3.32 8 4 C10.30965848 5.05352843 12.6429774 6.05719096 15 7 C13 8 13 8 10.72265625 7.36328125 C9.84480469 7.01652344 8.96695313 6.66976562 8.0625 6.3125 C7.18722656 5.97863281 6.31195313 5.64476562 5.41015625 5.30078125 C2.77072867 3.87626037 1.59766491 2.50459021 0 0 Z " fill="#DAF8FC" transform="translate(72,170)"/>
<path d="M0 0 C0.556875 0.226875 1.11375 0.45375 1.6875 0.6875 C0.3675 1.0175 -0.9525 1.3475 -2.3125 1.6875 C-2.3125 2.3475 -2.3125 3.0075 -2.3125 3.6875 C-1.3225 3.6875 -0.3325 3.6875 0.6875 3.6875 C0.6875 4.3475 0.6875 5.0075 0.6875 5.6875 C-1.6225 5.3575 -3.9325 5.0275 -6.3125 4.6875 C-6.6425 5.3475 -6.9725 6.0075 -7.3125 6.6875 C-7.3125 5.3675 -7.3125 4.0475 -7.3125 2.6875 C-4.7516601 0.62460119 -3.3245861 -0.44926839 0 0 Z " fill="#E2C531" transform="translate(71.3125,68.3125)"/>
<path d="M0 0 C5.04424468 0.44508041 7.44443409 2.60980925 11 6 C11 6.66 11 7.32 11 8 C11.66 8 12.32 8 13 8 C12.67 9.32 12.34 10.64 12 12 C11.319375 11.113125 10.63875 10.22625 9.9375 9.3125 C7.05181295 5.81318985 3.7253068 3.5565831 0 1 C0 0.67 0 0.34 0 0 Z " fill="#DDF4FE" transform="translate(214,23)"/>
<path d="M0 0 C6.625 -0.25 6.625 -0.25 10 2 C6.53777385 3.06723961 3.35960734 3.10173486 -0.25 3.0625 C-1.32765625 3.05347656 -2.4053125 3.04445312 -3.515625 3.03515625 C-4.33546875 3.02355469 -5.1553125 3.01195312 -6 3 C-6 2.67 -6 2.34 -6 2 C-4.02 2 -2.04 2 0 2 C0 1.34 0 0.68 0 0 Z " fill="#78ECF9" transform="translate(191,232)"/>
<path d="M0 0 C0.66 0.33 1.32 0.66 2 1 C0.87548273 3.9719385 -0.22293791 6.33440687 -2 9 C-2.66 9 -3.32 9 -4 9 C-4.33 7.35 -4.66 5.7 -5 4 C-3.35 2.68 -1.7 1.36 0 0 Z " fill="#F1CE0F" transform="translate(94,96)"/>
<path d="M0 0 C0.33 0.99 0.66 1.98 1 3 C0.67 3.66 0.34 4.32 0 5 C-0.15067214 6.4465242 -0.24861036 7.8987934 -0.31640625 9.3515625 C-0.35830078 10.20234375 -0.40019531 11.053125 -0.44335938 11.9296875 C-0.48267578 12.81914063 -0.52199219 13.70859375 -0.5625 14.625 C-0.60568359 15.5221875 -0.64886719 16.419375 -0.69335938 17.34375 C-0.79956861 19.56234283 -0.90161194 21.7810488 -1 24 C-1.33 24 -1.66 24 -2 24 C-2.05787784 20.37506666 -2.0935542 16.75025143 -2.125 13.125 C-2.14175781 12.09246094 -2.15851562 11.05992188 -2.17578125 9.99609375 C-2.18222656 9.00996094 -2.18867187 8.02382812 -2.1953125 7.0078125 C-2.20578613 6.09660645 -2.21625977 5.18540039 -2.22705078 4.24658203 C-2 2 -2 2 0 0 Z " fill="#6EACA6" transform="translate(49,88)"/>
<path d="M0 0 C0.33 0 0.66 0 1 0 C1 1.98 1 3.96 1 6 C0.360625 6.20625 -0.27875 6.4125 -0.9375 6.625 C-3.34925077 7.89538209 -3.34925077 7.89538209 -3.75 11.125 C-3.8325 12.07375 -3.915 13.0225 -4 14 C-4.33 14 -4.66 14 -5 14 C-5 11.36 -5 8.72 -5 6 C-4.01 5.67 -3.02 5.34 -2 5 C-0.78130071 2.49552484 -0.78130071 2.49552484 0 0 Z " fill="#6DE2FA" transform="translate(231,202)"/>
<path d="M0 0 C2.64 0 5.28 0 8 0 C8 0.99 8 1.98 8 3 C3.545 3.495 3.545 3.495 -1 4 C-0.67 2.68 -0.34 1.36 0 0 Z " fill="#E4F7F9" transform="translate(183,118)"/>
<path d="M0 0 C0.33 0.66 0.66 1.32 1 2 C0.01 2 -0.98 2 -2 2 C-2 3.65 -2 5.3 -2 7 C-2.99 7 -3.98 7 -5 7 C-5 6.01 -5 5.02 -5 4 C-6.32 4.33 -7.64 4.66 -9 5 C-6.47043472 1.9083091 -3.77545388 1.09068668 0 0 Z " fill="#FCF5CA" transform="translate(122,84)"/>
<path d="M0 0 C-1.32 1.32 -2.64 2.64 -4 4 C-3.34 4.33 -2.68 4.66 -2 5 C-3.65 5.66 -5.3 6.32 -7 7 C-7.625 5.1875 -7.625 5.1875 -8 3 C-5.45189726 -0.82215411 -4.39145359 -1.46381786 0 0 Z " fill="#1E7AF0" transform="translate(45,25)"/>
<path d="M0 0 C2.64 0 5.28 0 8 0 C8 1.65 8 3.3 8 5 C7.34 5 6.68 5 6 5 C5.67 4.34 5.34 3.68 5 3 C4.01 2.67 3.02 2.34 2 2 C2 2.66 2 3.32 2 4 C1.34 4 0.68 4 0 4 C0 2.68 0 1.36 0 0 Z " fill="#367CE0" transform="translate(184,16)"/>
<path d="M0 0 C0.66 0 1.32 0 2 0 C2 0.66 2 1.32 2 2 C2.66 2 3.32 2 4 2 C4.4125 2.94875 4.825 3.8975 5.25 4.875 C7.0040131 8.00716624 7.70851757 8.86500606 11 10 C8.69 10 6.38 10 4 10 C1.125 3.375 1.125 3.375 0 0 Z " fill="#66A4D8" transform="translate(162,100)"/>
<path d="M0 0 C2.31 0.33 4.62 0.66 7 1 C4.65408148 3.7710688 2.85223799 4.52059284 -0.6875 5.1875 C-1.49574219 5.34605469 -2.30398437 5.50460938 -3.13671875 5.66796875 C-4.05904297 5.83232422 -4.05904297 5.83232422 -5 6 C-4.67 5.34 -4.34 4.68 -4 4 C-2.68 4 -1.36 4 0 4 C0 2.68 0 1.36 0 0 Z " fill="#E0F8FD" transform="translate(180,171)"/>
<path d="M0 0 C0.33 0 0.66 0 1 0 C1.33 1.98 1.66 3.96 2 6 C1.01 6.66 0.02 7.32 -1 8 C-1.66 8.99 -2.32 9.98 -3 11 C-4 8 -4 8 -3.22265625 5.95703125 C-2.83980469 5.24933594 -2.45695313 4.54164063 -2.0625 3.8125 C-1.68222656 3.09707031 -1.30195313 2.38164062 -0.91015625 1.64453125 C-0.60980469 1.10183594 -0.30945313 0.55914062 0 0 Z " fill="#DBFBFD" transform="translate(233,206)"/>
<path d="M0 0 C0.33 0.66 0.66 1.32 1 2 C0.07421875 3.91015625 0.07421875 3.91015625 -1.3125 6.0625 C-1.76238281 6.77535156 -2.21226562 7.48820313 -2.67578125 8.22265625 C-4 10 -4 10 -6 11 C-5.57576756 9.53775201 -5.13509755 8.08026588 -4.6875 6.625 C-4.44386719 5.81289062 -4.20023438 5.00078125 -3.94921875 4.1640625 C-3 2 -3 2 0 0 Z " fill="#7DD9EA" transform="translate(231,208)"/>
<path d="M0 0 C2.31 0 4.62 0 7 0 C7.33 0.99 7.66 1.98 8 3 C5.03 3 2.06 3 -1 3 C-0.67 2.01 -0.34 1.02 0 0 Z " fill="#41A7F9" transform="translate(168,104)"/>
<path d="M0 0 C0 1.32 0 2.64 0 4 C-0.66 4 -1.32 4 -2 4 C-2.33 4.66 -2.66 5.32 -3 6 C-3.103125 5.360625 -3.20625 4.72125 -3.3125 4.0625 C-3.539375 3.381875 -3.76625 2.70125 -4 2 C-4.99 1.67 -5.98 1.34 -7 1 C-3.375 -1.125 -3.375 -1.125 0 0 Z " fill="#419EF2" transform="translate(47,96)"/>
<path d="M0 0 C1.65 0 3.3 0 5 0 C4.67 1.32 4.34 2.64 4 4 C3.34 4 2.68 4 2 4 C2 4.66 2 5.32 2 6 C1.01 5.67 0.02 5.34 -1 5 C-0.67 3.35 -0.34 1.7 0 0 Z " fill="#3589EC" transform="translate(48,64)"/>
<path d="M0 0 C-0.33 2.64 -0.66 5.28 -1 8 C-1.99 8 -2.98 8 -4 8 C-4.36780384 3.46375267 -4.36780384 3.46375267 -2.5625 1.1875 C-1 0 -1 0 0 0 Z " fill="#FCF5FD" transform="translate(198,152)"/>
<path d="M0 0 C4.95769796 -0.29162929 8.02806853 -0.12940055 12 3 C12 3.66 12 4.32 12 5 C8 3.66666667 4 2.33333333 0 1 C0 0.67 0 0.34 0 0 Z " fill="#D0EEFB" transform="translate(202,18)"/>
<path d="M0 0 C0.33 0 0.66 0 1 0 C1 1.65 1 3.3 1 5 C-2.465 6.485 -2.465 6.485 -6 8 C-5.25 5.5625 -5.25 5.5625 -4 3 C-1.875 2.1875 -1.875 2.1875 0 2 C0 1.34 0 0.68 0 0 Z " fill="#F4C613" transform="translate(59,79)"/>
<path d="M0 0 C0.66 0 1.32 0 2 0 C1.54554036 1.41791408 1.08625056 2.83428046 0.625 4.25 C0.36976562 5.03890625 0.11453125 5.8278125 -0.1484375 6.640625 C-0.95173667 8.86627958 -1.89711662 10.90931672 -3 13 C-2.88557539 11.39504433 -2.75805306 9.79101881 -2.625 8.1875 C-2.55539063 7.29417969 -2.48578125 6.40085937 -2.4140625 5.48046875 C-2 3 -2 3 0 0 Z " fill="#DFF6FE" transform="translate(20,41)"/>
<path d="M0 0 C2.1519437 3.22791555 2.20086443 4.28400809 2 8 C1.01 8.33 0.02 8.66 -1 9 C-1.09765625 2.84765625 -1.09765625 2.84765625 -1 1 C-0.67 0.67 -0.34 0.34 0 0 Z " fill="#258CF6" transform="translate(233,56)"/>
<path d="M0 0 C1.32 0.66 2.64 1.32 4 2 C1.6875 4.5 1.6875 4.5 -1 7 C-1.99 7 -2.98 7 -4 7 C-3.67 6.34 -3.34 5.68 -3 5 C-2.34 5 -1.68 5 -1 5 C-0.67 3.35 -0.34 1.7 0 0 Z " fill="#D6EBFA" transform="translate(29,27)"/>
<path d="M0 0 C3.34249629 0.59687434 5.46436342 1.73603877 8 4 C8 4.66 8 5.32 8 6 C8.66 6 9.32 6 10 6 C10 6.66 10 7.32 10 8 C6.05205855 6.32971708 3.18203882 3.8204435 0 1 C0 0.67 0 0.34 0 0 Z " fill="#5EA6D4" transform="translate(187,115)"/>
<path d="M0 0 C1.65 0.33 3.3 0.66 5 1 C5 1.66 5 2.32 5 3 C3.35 3.66 1.7 4.32 0 5 C-0.33 4.01 -0.66 3.02 -1 2 C-0.67 1.34 -0.34 0.68 0 0 Z " fill="#E7F6FA" transform="translate(177,113)"/>
<path d="M0 0 C0.33 0.99 0.66 1.98 1 3 C-0.25 5.1875 -0.25 5.1875 -2 7 C-2.99 7 -3.98 7 -5 7 C-3.75023244 3.34683329 -3.32901247 2.21934164 0 0 Z " fill="#FCEF96" transform="translate(99,95)"/>
<path d="M0 0 C0 0.66 0 1.32 0 2 C-0.66 2 -1.32 2 -2 2 C-1.67 3.65 -1.34 5.3 -1 7 C-2.32 6.34 -3.64 5.68 -5 5 C-5 4.01 -5 3.02 -5 2 C-2 0 -2 0 0 0 Z " fill="#368BF9" transform="translate(62,66)"/>
<path d="M0 0 C2.34942482 2.13584075 3.69579377 4.11211477 5 7 C5.33 7.66 5.66 8.32 6 9 C5.34 9 4.68 9 4 9 C3.67 9.66 3.34 10.32 3 11 C2.49632243 9.54293274 1.99717444 8.08429904 1.5 6.625 C1.2215625 5.81289063 0.943125 5.00078125 0.65625 4.1640625 C0 2 0 2 0 0 Z " fill="#317DDF" transform="translate(222,30)"/>
<path d="M0 0 C1.65 0 3.3 0 5 0 C5.33 0.99 5.66 1.98 6 3 C3.69 3 1.38 3 -1 3 C-0.67 2.01 -0.34 1.02 0 0 Z " fill="#71F0FC" transform="translate(58,231)"/>
<path d="M0 0 C1.9375 0.3125 1.9375 0.3125 4 1 C4.33 1.99 4.66 2.98 5 4 C4.67 4.66 4.34 5.32 4 6 C3.34 6 2.68 6 2 6 C0 3 0 3 0 0 Z " fill="#71E2F9" transform="translate(23,208)"/>
<path d="M0 0 C0.66 0.33 1.32 0.66 2 1 C-0.2370804 4.3556206 -0.42517038 4.19278041 -4 5 C-4.33 5.66 -4.66 6.32 -5 7 C-5.66 7 -6.32 7 -7 7 C-6.8125 5.125 -6.8125 5.125 -6 3 C-3.5 1.8125 -3.5 1.8125 -1 1 C-0.67 0.67 -0.34 0.34 0 0 Z " fill="#3978DD" transform="translate(37,26)"/>
<path d="M0 0 C5.75 2.625 5.75 2.625 8 6 C5.36 5.34 2.72 4.68 0 4 C0 2.68 0 1.36 0 0 Z " fill="#8CC196" transform="translate(61,136)"/>
<path d="M0 0 C0.66 0 1.32 0 2 0 C2.33 0.99 2.66 1.98 3 3 C1.68 4.32 0.36 5.64 -1 7 C-1.04254356 5.00045254 -1.04080783 2.99958364 -1 1 C-0.67 0.67 -0.34 0.34 0 0 Z " fill="#F1CC1F" transform="translate(50,92)"/>
<path d="M0 0 C0.99 0 1.98 0 3 0 C2.625 2.9375 2.625 2.9375 2 6 C1.01 6.495 1.01 6.495 0 7 C-0.38133299 5.0085944 -0.71325582 3.00720923 -1 1 C-0.67 0.67 -0.34 0.34 0 0 Z " fill="#FAF9D5" transform="translate(123,88)"/>
<path d="M0 0 C-3.12432397 2.52349243 -6.38060496 4.27256146 -10 6 C-8.26240984 0.78722952 -5.3189028 -0.4432419 0 0 Z " fill="#EAC523" transform="translate(114,85)"/>
<path d="M0 0 C1.65 1.65 3.3 3.3 5 5 C4.01 5.495 4.01 5.495 3 6 C2.67 6.66 2.34 7.32 2 8 C2 7.34 2 6.68 2 6 C1.34 6 0.68 6 0 6 C0 4.02 0 2.04 0 0 Z " fill="#55B4E3" transform="translate(54,130)"/>
<path d="M0 0 C1.98 0.66 3.96 1.32 6 2 C6 3.65 6 5.3 6 7 C1.125 2.25 1.125 2.25 0 0 Z " fill="#5197D4" transform="translate(156,93)"/>
<path d="M0 0 C2.475 0.495 2.475 0.495 5 1 C5 1.66 5 2.32 5 3 C2.5 4.625 2.5 4.625 0 6 C0 4 0 2 0 0 Z " fill="#E2EDF5" transform="translate(128,85)"/>
<path d="M0 0 C0 3.10551666 -0.5393715 4.35261084 -2 7 C-2.66 6.67 -3.32 6.34 -4 6 C-4 4.68 -4 3.36 -4 2 C-2.68 1.34 -1.36 0.68 0 0 Z " fill="#4790CA" transform="translate(53,81)"/>
<path d="M0 0 C1.65 0 3.3 0 5 0 C5 2.31 5 4.62 5 7 C1.125 2.25 1.125 2.25 0 0 Z " fill="#5391C3" transform="translate(119,76)"/>
<path d="M0 0 C0.66 0.33 1.32 0.66 2 1 C1.01 2.485 1.01 2.485 0 4 C-0.68177416 5.32567199 -1.35191436 6.65753688 -2 8 C-3 5 -3 5 -3 1 C-2.01 0.67 -1.02 0.34 0 0 Z " fill="#FCC00A" transform="translate(65,74)"/>
</svg>
